<?xml version="1.0" encoding="UTF-8" standalone="no"?>
<!-- Generator: Adobe Illustrator 25.3.1, SVG Export Plug-In . SVG Version: 6.00 Build 0)  -->

<svg
   version="1.1"
   id="Ebene_1"
   x="0px"
   y="0px"
   viewBox="0 0 308.4 63.9"
   style="enable-background:new 0 0 308.4 63.9;"
   xml:space="preserve"
   xmlns="http://www.w3.org/2000/svg"
   xmlns:svg="http://www.w3.org/2000/svg"><defs
   id="defs1826" />
<style
   type="text/css"
   id="style1791">
	.st0{fill:#E74124;}
	.st1{fill:#8CC3B9;}
	.st2{fill:#FAC850;}
	.st3{fill:#1D1D1B;}
	.st4{fill:#EDE9E5;}
	.st5{fill:#FF3214;}
	.st6{fill:#FFFFFF;}
	.st7{fill:none;stroke:#EDE9E4;}
</style>
<g
   id="g1821">
	<path
   d="M44.2,12.5c-5.4-1.1-10.2,0.1-14,4.6c-2.4-3.4-5.6-4.9-9.5-5c-3.9-0.1-7.2,1.2-10.1,4.4c-0.1-1.5-0.2-2.3-0.2-3.2H1.4v35.4   h9.1c0-6.5,0-12.8,0-19.1c0-1.6,0.2-3.2,0.6-4.6c1-3,3.9-4.7,7-4.2c3,0.4,4.8,2.4,5,5.8c0.1,3.1,0.1,6.1,0.1,9.2c0,4.3,0,8.5,0,13   h9.3c0-2.3,0-4.4,0-6.5c0-5-0.1-10,0.1-15c0.2-4.2,2.9-6.7,6.7-6.6c3.7,0.1,5.8,2.5,5.9,6.9c0.1,4.2,0,8.4,0,12.6   c0,2.9,0,5.7,0,8.6h9.2c0-8.1,0.3-16-0.1-23.8C53.9,18.1,50.1,13.8,44.2,12.5"
   id="path1793"
   style="fill:#ffffff;fill-opacity:1" />
	<path
   d="M86.4,16.8c-9.2-6.3-17.4-6-23.7,0.7c-6.5,6.8-7.1,18-1.4,25.6c2.5,3.3,5.8,5.6,9.8,6.5c5.7,1.3,10.8-0.1,15.3-4.3l9.2,3.7   V13.4h-8.9C86.5,14.6,86.5,15.6,86.4,16.8 M76.5,41.2c-5.7,0-9.8-4.2-9.8-10c0-6,4.1-10.1,10-10.1c5.8,0,9.8,4.2,9.9,10   C86.5,36.9,82.3,41.2,76.5,41.2"
   id="path1795"
   style="fill:#ffffff;fill-opacity:1" />
	<path
   d="M111.3,18.5c-0.1-2.1-0.2-3.6-0.2-5.1h-9v35.6h9.1c0-5.8-0.1-11.4,0-16.9c0.1-5.6,3.2-8.8,8.7-9.2c2-0.1,2.6,0,2.6,0   c0.9-5.6,4.6-9.6,4.6-9.6C121.2,11.3,112.9,14.2,111.3,18.5"
   id="path1797"
   style="fill:#ffffff;fill-opacity:1" />
	<path
   d="M176.5,17.1c-6.6,6.6-7.5,17.8-2,25.5c2.5,3.5,5.7,5.9,9.9,6.9c5.8,1.4,11,0,15.5-4.3c0.1,1.5,0.1,2.5,0.2,3.7h9V13.3   l-9.2,3.5C191.3,10.6,182.9,10.8,176.5,17.1 M190,41.2c-5.7,0-9.9-4.1-9.9-10c-0.1-6,4.1-10.2,9.9-10.2   C203.3,21,203.2,41.2,190,41.2"
   id="path1799"
   style="fill:#ffffff;fill-opacity:1" />
	<path
   d="M171.6,45.3c-0.8-1.1-1.5-2.3-2.1-3.6l0,0c-3.2,0.7-5.5,0.3-6.6-1.2c4.4-6.6,4.6-14.7,0.7-21.5   c-3.8-6.7-11.6-10.9-19.2-10.3c-7.7,0.5-14.8,5.7-17.6,12.9c-1.5,3.8-1.8,8.3-0.8,12.5c1.2,4.7,3.9,9.1,7.4,11.7c1,0.7,2,1.4,3,1.9   c2.2,1.1,4.5,1.8,6.9,2.1l0.3,0c4.8,0.5,9.8-0.7,13.7-3.3c4.5,3.9,12.2,4.2,17.2,2.1l0,0C173.4,47.7,172.4,46.5,171.6,45.3z    M156.5,35c-6.9-8.2-16.6-4.1-18.4-3.2l-0.2,0.1l0.1,0.2c0.6,1.3,1.4,2.4,2.3,3.4c1.1,1.1,2.3,2,3.7,2.6l0.1,0l0.1,0   c2-0.5,4.8-0.4,6.8,2.3c-1.4,0.9-3.6,1.2-5.2,1.2c-3.3,0-6.3-1.3-8.5-3.6c-2.2-2.3-3.4-5.4-3.4-8.8c0-7,5.2-12.3,12-12.3   c6.7,0,12,5.4,12,12.3C157.8,31.3,157.3,33.3,156.5,35z"
   id="path1801"
   style="fill:#ffffff;fill-opacity:1" />
	<g
   id="g1819"
   style="fill:#ffffff;fill-opacity:1">
		<g
   id="g1809"
   style="fill:#ffffff;fill-opacity:1">
			<path
   d="M253.6,31.1c0,10.6-7.8,18.7-17.3,18.7c-5.2,0-8.9-1.9-11.5-5.2v4.2h-9.2v-48h9.2v16.7c2.6-3.3,6.3-5.2,11.5-5.2     C245.8,12.4,253.6,20.5,253.6,31.1z M244.5,31.1c0-6-4.2-10-9.9-10c-5.6,0-9.8,4-9.8,10c0,6,4.2,10,9.8,10     C240.3,41.1,244.5,37.1,244.5,31.1z"
   id="path1803"
   style="fill:#ffffff;fill-opacity:1" />
			<path
   d="M257.8,0.9h9.2v47.9h-9.2V0.9z"
   id="path1805"
   style="fill:#ffffff;fill-opacity:1" />
			<path
   d="M306.9,13.4L294,48.9c-3.7,10.2-9.7,14.7-18.7,14.2v-8.5c5,0.1,7.6-2.1,9.3-6.8L270,13.4h10l9.2,23.9l7.9-23.9H306.9z"
   id="path1807"
   style="fill:#ffffff;fill-opacity:1" />
		</g>
		<g
   id="g1817"
   style="fill:#ffffff;fill-opacity:1">
			<path
   class="st3"
   d="M253.6,31.1c0,10.6-7.8,18.7-17.3,18.7c-5.2,0-8.9-1.9-11.5-5.2v4.2h-9.2v-48h9.2v16.7     c2.6-3.3,6.3-5.2,11.5-5.2C245.8,12.4,253.6,20.5,253.6,31.1z M244.5,31.1c0-6-4.2-10-9.9-10c-5.6,0-9.8,4-9.8,10     c0,6,4.2,10,9.8,10C240.3,41.1,244.5,37.1,244.5,31.1z"
   id="path1811"
   style="fill:#ffffff;fill-opacity:1" />
			<path
   class="st3"
   d="M257.8,0.9h9.2v47.9h-9.2V0.9z"
   id="path1813"
   style="fill:#ffffff;fill-opacity:1" />
			<path
   class="st3"
   d="M306.9,13.4L294,48.9c-3.7,10.2-9.7,14.7-18.7,14.2v-8.5c5,0.1,7.6-2.1,9.3-6.8L270,13.4h10l9.2,23.9     l7.9-23.9H306.9z"
   id="path1815"
   style="fill:#ffffff;fill-opacity:1" />
		</g>
	</g>
</g>
</svg>
