<?xml version="1.0" encoding="UTF-8" standalone="no"?>
<!-- Created with Inkscape (http://www.inkscape.org/) -->

<svg
   width="23.86352mm"
   height="7.1308999mm"
   viewBox="0 0 23.86352 7.1308999"
   version="1.1"
   id="svg1441"
   sodipodi:docname="flites-logo-white.svg"
   inkscape:version="1.1.2 (0a00cf5339, 2022-02-04)"
   xmlns:inkscape="http://www.inkscape.org/namespaces/inkscape"
   xmlns:sodipodi="http://sodipodi.sourceforge.net/DTD/sodipodi-0.dtd"
   xmlns="http://www.w3.org/2000/svg"
   xmlns:svg="http://www.w3.org/2000/svg">
  <sodipodi:namedview
     id="namedview168"
     pagecolor="#ffffff"
     bordercolor="#666666"
     borderopacity="1.0"
     inkscape:pageshadow="2"
     inkscape:pageopacity="0.0"
     inkscape:pagecheckerboard="0"
     inkscape:document-units="mm"
     showgrid="false"
     fit-margin-top="0"
     fit-margin-left="0"
     fit-margin-right="0"
     fit-margin-bottom="0"
     inkscape:zoom="6.6669696"
     inkscape:cx="33.148494"
     inkscape:cy="13.799373"
     inkscape:window-width="1716"
     inkscape:window-height="1331"
     inkscape:window-x="8"
     inkscape:window-y="64"
     inkscape:window-maximized="0"
     inkscape:current-layer="g10203" />
  <defs
     id="defs1438" />
  <g
     id="layer1"
     transform="translate(-113.16486,-123.5205)">
    <g
       id="g10203"
       transform="translate(0.19473,-0.67157157)">
      <path
         d="m 122.65633,130.6041 v -3.63855 q 0,-0.4699 0.2921,-0.73025 0.29845,-0.2667 0.8001,-0.2667 h 0.53975 v 0.7874 h -0.55245 q -0.0508,0 -0.0889,0.0381 -0.0381,0.0381 -0.0381,0.0889 v 3.7211 z m -0.50165,-2.33045 v -0.8001 h 2.1336 v 0.8001 z"
         style="font-weight:800;font-size:24px;line-height:1.25;font-family:SUSE;-inkscape-font-specification:'SUSE Ultra-Bold';font-variant-ligatures:none;white-space:pre;stroke-width:0.264583;fill:#ffffff"
         id="path46167-2-6-5-1-6" />
      <path
         d="m 126.05851,130.60629 q -0.46988,-0.004 -0.74709,-0.24807 -0.27079,-0.25012 -0.26676,-0.6946 l 0.0301,-3.32726 0.42158,0.42928 -0.88897,-0.008 0.007,-0.80006 1.41599,0.0128 -0.0337,3.72094 q -5.3e-4,0.0508 0.0374,0.0892 0.0378,0.0384 0.0885,0.0389 l 0.36194,0.003 -0.007,0.78737 z"
         style="font-weight:800;font-size:24px;line-height:1.25;font-family:SUSE;-inkscape-font-specification:'SUSE Ultra-Bold';font-variant-ligatures:none;white-space:pre;stroke-width:0.264583;fill:#ffffff"
         id="path46169-8-0-6-7-0" />
      <path
         d="m 126.97431,130.6041 v -2.7559 l 0.42545,0.42545 h -0.9525 v -0.8001 h 1.47955 v 3.13055 z m -0.0445,-3.6957 v -0.9398 h 1.0541 v 0.9398 z"
         style="font-weight:800;font-size:24px;line-height:1.25;font-family:SUSE;-inkscape-font-specification:'SUSE Ultra-Bold';font-variant-ligatures:none;white-space:pre;stroke-width:0.264583;fill:#ffffff"
         id="path46171-8-4-1-8-4" />
      <path
         d="m 129.97785,130.6041 q -0.1778,0 -0.3683,-0.0381 -0.18415,-0.0381 -0.3429,-0.14605 -0.15875,-0.10795 -0.26035,-0.3048 -0.0953,-0.19685 -0.0953,-0.51435 v -2.8829 h 0.9525 v 2.9591 q 0,0.0508 0.0381,0.0889 0.0381,0.0381 0.0889,0.0381 h 0.51435 v 0.8001 z m -1.55575,-2.33045 v -0.8001 h 2.0828 v 0.8001 z"
         style="font-weight:800;font-size:24px;line-height:1.25;font-family:SUSE;-inkscape-font-specification:'SUSE Ultra-Bold';font-variant-ligatures:none;white-space:pre;stroke-width:0.264583;fill:#ffffff"
         id="path46173-8-1-1-5-8" />
      <path
         d="m 132.45433,130.6676 q -0.47625,0 -0.8382,-0.19685 -0.3556,-0.2032 -0.5588,-0.56515 -0.2032,-0.36195 -0.2032,-0.84455 v -0.0635 q 0,-0.4445 0.1905,-0.8001 0.1905,-0.36195 0.5334,-0.5715 0.3429,-0.2159 0.8001,-0.2159 0.4953,0 0.8382,0.2413 0.34925,0.23495 0.50165,0.66675 0.15875,0.4318 0.0825,1.016 h -2.2606 v -0.61595 h 1.75895 l -0.42545,0.3048 q 0.0508,-0.28575 -0.006,-0.47625 -0.0508,-0.19685 -0.1778,-0.29845 -0.127,-0.1016 -0.3048,-0.1016 -0.20955,0 -0.3429,0.1143 -0.127,0.1143 -0.1905,0.3048 -0.0572,0.1905 -0.0572,0.4318 v 0.1905 q 0,0.2032 0.0762,0.36195 0.0825,0.1524 0.2413,0.2413 0.15875,0.0825 0.3937,0.0825 0.2286,0 0.3683,-0.0699 0.1397,-0.0762 0.26035,-0.2032 l 0.53975,0.55245 q -0.19685,0.26035 -0.508,0.38735 -0.31115,0.127 -0.7112,0.127 z"
         style="font-weight:800;font-size:24px;line-height:1.25;font-family:SUSE;-inkscape-font-specification:'SUSE Ultra-Bold';font-variant-ligatures:none;white-space:pre;stroke-width:0.264583;fill:#ffffff"
         id="path46175-6-0-5-7-8" />
      <path
         d="m 135.38802,130.6549 q -0.40005,0 -0.71755,-0.10795 -0.3175,-0.1143 -0.5334,-0.2667 l 0.40005,-0.64135 q 0.2032,0.12065 0.41275,0.2032 0.2159,0.0826 0.43815,0.0826 0.17145,0 0.27305,-0.0572 0.1016,-0.0635 0.1016,-0.1651 0,-0.1143 -0.10795,-0.1651 -0.10795,-0.0571 -0.2794,-0.0952 -0.1651,-0.0444 -0.3556,-0.0952 -0.1905,-0.0572 -0.36195,-0.1524 -0.1651,-0.1016 -0.27305,-0.2794 -0.10795,-0.18415 -0.10795,-0.4826 0,-0.45085 0.33655,-0.7366 0.3429,-0.28575 0.9398,-0.28575 0.3175,0 0.6096,0.0825 0.2921,0.0762 0.5207,0.22225 l -0.4064,0.635 q -0.1778,-0.10795 -0.3683,-0.1651 -0.18415,-0.0572 -0.3683,-0.0572 -0.1651,0 -0.26035,0.0635 -0.0952,0.0572 -0.0952,0.15875 0,0.10795 0.10795,0.1651 0.1143,0.0572 0.28575,0.1016 0.1778,0.0381 0.3683,0.0953 0.19685,0.0571 0.3683,0.1651 0.1778,0.1016 0.28575,0.28575 0.1143,0.1778 0.1143,0.47625 0,0.29845 -0.17145,0.52705 -0.17145,0.2286 -0.4699,0.36195 -0.29845,0.127 -0.6858,0.127 z"
         style="font-weight:800;font-size:24px;line-height:1.25;font-family:SUSE;-inkscape-font-specification:'SUSE Ultra-Bold';font-variant-ligatures:none;white-space:pre;stroke-width:0.264583;fill:#ffffff"
         id="path46177-8-4-9-4-8" />
      <path
         d="m 122.40915,130.343 0.30526,-3.62572 q 0.0394,-0.46824 0.35234,-0.70317 0.31977,-0.24072 0.81965,-0.19863 l 0.53785,0.0453 -0.0661,0.78462 -0.5505,-0.0464 q -0.0506,-0.004 -0.0918,0.0305 -0.0412,0.0348 -0.0454,0.0854 l -0.31218,3.70798 z m -0.30436,-2.36432 0.0671,-0.79728 2.12608,0.179 -0.0671,0.79728 z"
         style="font-weight:800;font-size:24px;line-height:1.25;font-family:SUSE;-inkscape-font-specification:'SUSE Ultra-Bold';font-variant-ligatures:none;white-space:pre;opacity:0.277431;stroke-width:0.264583;fill:#ffffff"
         id="path46167-6-83-7-4-8-7" />
      <path
         d="m 125.63477,130.45234 q -0.46344,-0.0776 -0.69918,-0.36172 -0.2284,-0.28934 -0.155,-0.72774 l 0.5494,-3.28173 0.34936,0.48986 -0.87681,-0.14674 0.13187,-0.78915 1.39661,0.23382 -0.61444,3.67002 q -0.008,0.0501 0.023,0.094 0.0313,0.0439 0.0813,0.0522 l 0.35699,0.0598 -0.12989,0.77661 z"
         style="font-weight:800;font-size:24px;line-height:1.25;font-family:SUSE;-inkscape-font-specification:'SUSE Ultra-Bold';font-variant-ligatures:none;white-space:pre;opacity:0.277431;stroke-width:0.264583;fill:#ffffff"
         id="path46169-2-3-0-8-5-7" />
      <path
         d="m 126.56804,130.34866 0.41884,-2.72389 0.35585,0.48517 -0.94143,-0.14476 0.1216,-0.79081 1.46236,0.22486 -0.47578,3.09419 z m 0.5177,-3.65953 0.14282,-0.92889 1.04185,0.16021 -0.14282,0.92888 z"
         style="font-weight:800;font-size:24px;line-height:1.25;font-family:SUSE;-inkscape-font-specification:'SUSE Ultra-Bold';font-variant-ligatures:none;white-space:pre;opacity:0.277431;stroke-width:0.264583;fill:#ffffff"
         id="path46171-6-3-8-1-9-6" />
      <path
         d="m 129.54349,130.46099 q -0.17454,-0.0339 -0.35429,-0.10757 -0.17352,-0.0725 -0.30879,-0.20871 -0.13528,-0.13622 -0.19751,-0.34882 -0.056,-0.2114 0.004,-0.52308 l 0.54928,-2.83009 0.93505,0.18147 -0.56379,2.9049 q -0.01,0.0499 0.0205,0.0945 0.0301,0.0447 0.08,0.0543 l 0.50493,0.098 -0.15244,0.78544 z m -1.08323,-2.58417 0.15244,-0.78545 2.04465,0.39684 -0.15245,0.78544 z"
         style="font-weight:800;font-size:24px;line-height:1.25;font-family:SUSE;-inkscape-font-specification:'SUSE Ultra-Bold';font-variant-ligatures:none;white-space:pre;opacity:0.277431;stroke-width:0.264583;fill:#ffffff"
         id="path46173-7-80-6-0-7-4" />
      <path
         d="m 132.13482,130.4592 q -0.46998,-0.077 -0.79536,-0.32975 -0.31807,-0.25801 -0.46009,-0.64804 -0.14203,-0.39004 -0.064,-0.86629 l 0.0103,-0.0627 q 0.0718,-0.43866 0.31732,-0.75879 0.2465,-0.32639 0.61877,-0.47776 0.37329,-0.15763 0.82447,-0.0837 0.48879,0.0801 0.78818,0.37361 0.30668,0.28832 0.38727,0.73907 0.0869,0.45179 -0.0828,1.01598 l -2.23087,-0.36541 0.0996,-0.60785 1.73582,0.28432 -0.46912,0.23202 q 0.0963,-0.27378 0.0711,-0.47096 -0.0183,-0.20247 -0.12722,-0.32326 -0.10891,-0.12079 -0.28437,-0.14953 -0.20679,-0.0339 -0.35687,0.0574 -0.1438,0.0923 -0.23726,0.27 -0.0872,0.17875 -0.12624,0.41687 l -0.0308,0.188 q -0.0328,0.20053 0.0167,0.36951 0.0568,0.16373 0.19913,0.27713 0.14331,0.10712 0.37518,0.1451 0.22559,0.0369 0.37474,-0.009 0.15018,-0.0526 0.28977,-0.15844 l 0.44336,0.63243 q -0.23635,0.2251 -0.56393,0.30014 -0.32759,0.075 -0.72238,0.0104 z"
         style="font-weight:800;font-size:24px;line-height:1.25;font-family:SUSE;-inkscape-font-specification:'SUSE Ultra-Bold';font-variant-ligatures:none;white-space:pre;opacity:0.277431;stroke-width:0.264583;fill:#ffffff"
         id="path46175-5-4-2-3-5-3" />
      <path
         d="m 135.05917,130.41951 q -0.39428,-0.0677 -0.68892,-0.22787 -0.29356,-0.16641 -0.48054,-0.35316 l 0.50285,-0.56436 q 0.17984,0.15331 0.37239,0.27014 0.19881,0.11792 0.41785,0.15554 0.16898,0.029 0.27879,-0.0101 0.11088,-0.0454 0.12808,-0.14551 0.0194,-0.11265 -0.0784,-0.18099 -0.0967,-0.0746 -0.25924,-0.14118 -0.15519,-0.0718 -0.33434,-0.15408 -0.17807,-0.0886 -0.33092,-0.21148 -0.14552,-0.12809 -0.22181,-0.3216 -0.0752,-0.19976 -0.0247,-0.49391 0.0763,-0.44434 0.4564,-0.66898 0.38633,-0.22357 0.97461,-0.12252 0.31292,0.0538 0.58682,0.18457 0.27499,0.12455 0.47556,0.3072 l -0.50804,0.55703 q -0.15696,-0.1365 -0.33503,-0.22507 -0.17182,-0.0875 -0.35331,-0.11868 -0.16272,-0.0279 -0.26734,0.0185 -0.1035,0.0402 -0.12071,0.14034 -0.0183,0.10639 0.0784,0.18099 0.10298,0.0757 0.26443,0.14851 0.16878,0.0677 0.34685,0.15623 0.18434,0.0897 0.33504,0.22507 0.15803,0.13024 0.23324,0.33001 0.0825,0.19458 0.032,0.48872 -0.0505,0.29414 -0.25821,0.49042 -0.20767,0.19627 -0.52439,0.27716 -0.31565,0.0746 -0.6974,0.009 z"
         style="font-weight:800;font-size:24px;line-height:1.25;font-family:SUSE;-inkscape-font-specification:'SUSE Ultra-Bold';font-variant-ligatures:none;white-space:pre;opacity:0.277431;stroke-width:0.264583;fill:#ffffff"
         id="path46177-6-7-4-0-3-0" />
      <path
         id="path97708-03-0-7-4-5"
         style="fill:#964eff;fill-opacity:1;stroke:none;stroke-width:0.62697;stroke-miterlimit:4;stroke-dasharray:none;stroke-opacity:0.998041"
         d="m 116.24176,124.70115 a 3.2712705,3.310705 0 0 0 -3.27163,3.31091 3.2712705,3.310705 0 0 0 3.27163,3.31091 3.2712705,3.310705 0 0 0 3.27112,-3.31091 3.2712705,3.310705 0 0 0 -3.27112,-3.31091 z m 0.0274,0.58601 a 2.690823,2.7334022 0 0 1 2.69079,2.73369 2.690823,2.7334022 0 0 1 -2.69079,2.73316 2.690823,2.7334022 0 0 1 -2.69079,-2.73316 2.690823,2.7334022 0 0 1 2.69079,-2.73369 z" />
      <path
         id="path97708-03-0-7-4-5-3"
         style="fill:#964eff;fill-opacity:0.50601;stroke:none;stroke-width:0.62697;stroke-miterlimit:4;stroke-dasharray:none;stroke-opacity:0.998041"
         d="m 117.11921,124.32549 a 3.2712705,3.310705 0 0 0 -3.27163,3.31091 3.2712705,3.310705 0 0 0 3.27163,3.31091 3.2712705,3.310705 0 0 0 3.27112,-3.31091 3.2712705,3.310705 0 0 0 -3.27112,-3.31091 z m 0.0274,0.58601 a 2.690823,2.7334022 0 0 1 2.69079,2.73369 2.690823,2.7334022 0 0 1 -2.69079,2.73316 2.690823,2.7334022 0 0 1 -2.69079,-2.73316 2.690823,2.7334022 0 0 1 2.69079,-2.73369 z" />
      <path
         id="path97708-03-0-7-4-5-3-6"
         style="fill:#964eff;fill-opacity:0.256072;stroke:none;stroke-width:0.62697;stroke-miterlimit:4;stroke-dasharray:none;stroke-opacity:0.998041"
         d="m 118.01363,124.19207 a 3.2712705,3.310705 0 0 0 -3.27163,3.31091 3.2712705,3.310705 0 0 0 3.27163,3.31091 3.2712705,3.310705 0 0 0 3.27112,-3.31091 3.2712705,3.310705 0 0 0 -3.27112,-3.31091 z m 0.0274,0.58601 a 2.690823,2.7334022 0 0 1 2.69079,2.73369 2.690823,2.7334022 0 0 1 -2.69079,2.73316 2.690823,2.7334022 0 0 1 -2.69079,-2.73316 2.690823,2.7334022 0 0 1 2.69079,-2.73369 z" />
    </g>
  </g>
</svg>
