<?xml version="1.0" encoding="UTF-8"?>
<svg width="34px" height="30px" viewBox="0 0 34 30" version="1.1" xmlns="http://www.w3.org/2000/svg" xmlns:xlink="http://www.w3.org/1999/xlink">
    <title>Group 3</title>
    <defs>
        <polygon id="path-1" points="0 0 34 0 34 30 0 30"></polygon>
    </defs>
    <g id="Startseite" stroke="none" stroke-width="1" fill="none" fill-rule="evenodd">
        <g id="Startseite-1" transform="translate(-955, -6998)">
            <g id="Group-40" transform="translate(143, 6847)">
                <g id="Group-31" transform="translate(464, 67)">
                    <g id="Group-12" transform="translate(0, 83)">
                        <g id="Group-3" transform="translate(348, 1)">
                            <mask id="mask-2" fill="white">
                                <use xlink:href="#path-1"></use>
                            </mask>
                            <g id="Clip-2"></g>
                            <path d="M16.2458818,29.6799777 C16.4456435,29.885692 16.7176594,30 17.002426,30 C17.2871927,30 17.5592086,29.885692 17.7589703,29.6799777 L31.3512653,15.7928571 C37.0197023,10.0028571 32.9918612,0 24.9305343,0 C20.0895011,0 17.8680821,3.58714286 17.002426,4.25712054 C16.1325197,3.58426339 13.9252461,0 9.07431781,0 C1.03849235,0 -3.03889065,9.97714286 2.65498143,15.7928571 L16.2458818,29.6799777 Z" id="Fill-1" fill="#2C66D0" mask="url(#mask-2)"></path>
                        </g>
                    </g>
                </g>
            </g>
        </g>
    </g>
</svg>