<?xml version="1.0" encoding="UTF-8"?>
<svg width="32px" height="26px" viewBox="0 0 32 26" version="1.1" xmlns="http://www.w3.org/2000/svg" xmlns:xlink="http://www.w3.org/1999/xlink">
    <title>Group 13</title>
    <g id="Startseite" stroke="none" stroke-width="1" fill="none" fill-rule="evenodd">
        <g id="Startseite-2" transform="translate(-165, -5097)">
            <g id="Group-25" transform="translate(146, 5075)">
                <g id="Group-13" transform="translate(20, 22)">
                    <line x1="0.0353582772" y1="12.6829841" x2="30" y2="12.6829841" id="Stroke-1" stroke="#FFFFFF" stroke-width="2" stroke-linecap="round"></line>
                    <line x1="0" y1="21.6370183" x2="29.9646417" y2="21.6370183" id="Stroke-3" stroke="#FFFFFF" stroke-width="2" stroke-linecap="round"></line>
                    <line x1="0.0353582772" y1="3.74737809" x2="30" y2="3.74737809" id="Stroke-5" stroke="#FFFFFF" stroke-width="2" stroke-linecap="round"></line>
                    <path d="M18.7279011,3.74558022 C18.7279011,5.81463873 17.0513794,7.49116043 14.9823209,7.49116043 C12.9132624,7.49116043 11.2367406,5.81463873 11.2367406,3.74558022 C11.2367406,1.6765217 12.9132624,0 14.9823209,0 C17.0513794,0 18.7279011,1.6765217 18.7279011,3.74558022" id="Fill-7" fill="#FFFFFF"></path>
                    <path d="M27.6903254,12.6268004 C27.6903254,14.6958589 26.0138037,16.3723806 23.9447452,16.3723806 C21.8756867,16.3723806 20.199165,14.6958589 20.199165,12.6268004 C20.199165,10.5577419 21.8756867,8.88122016 23.9447452,8.88122016 C26.0138037,8.88122016 27.6903254,10.5577419 27.6903254,12.6268004" id="Fill-9" fill="#FFFFFF"></path>
                    <path d="M9.80083501,21.6370183 C9.80083501,23.7060768 8.12431331,25.3825985 6.0552548,25.3825985 C3.98619629,25.3825985 2.30967458,23.7060768 2.30967458,21.6370183 C2.30967458,19.5679598 3.98619629,17.8914381 6.0552548,17.8914381 C8.12431331,17.8914381 9.80083501,19.5679598 9.80083501,21.6370183" id="Fill-11" fill="#FFFFFF"></path>
                </g>
            </g>
        </g>
    </g>
</svg>