<?xml version="1.0" encoding="UTF-8"?>
<svg width="32px" height="32px" viewBox="0 0 32 32" version="1.1" xmlns="http://www.w3.org/2000/svg" xmlns:xlink="http://www.w3.org/1999/xlink">
    <title>Group 7</title>
    <g id="Startseite" stroke="none" stroke-width="1" fill="none" fill-rule="evenodd" stroke-linecap="round" stroke-linejoin="round">
        <g id="Startseite-2" transform="translate(-165, -2694)" stroke="#FFFFFF" stroke-width="2">
            <g id="Group-26" transform="translate(146, 2675)">
                <g id="Group-7" transform="translate(20, 20)">
                    <path d="M28.410017,11.3484248 L17.8196593,16.6965554 C16.0629059,17.6341135 13.9386048,17.6341135 12.1802939,16.6965554 L1.59149366,11.3484248 C-0.526577869,10.2193058 -0.526577869,7.18080758 1.59149366,6.05168856 L12.1802939,0.702000545 C13.9386048,-0.234000182 16.0629059,-0.234000182 17.8196593,0.702000545 L28.410017,6.05168856 C30.5280885,7.18080758 30.5280885,10.2193058 28.410017,11.3484248 Z" id="Stroke-1"></path>
                    <path d="M29.9752096,13.8974304 C30.1356223,15.1480271 29.5064305,16.3487867 28.410017,16.9328138 L17.8196593,22.5815237 C16.0629059,23.5190818 13.9370473,23.5190818 12.1802939,22.5815237 L1.59149366,16.9328138 C0.495080163,16.3487867 -0.135669079,15.1480271 0.024743691,13.8974304" id="Stroke-3"></path>
                    <path d="M29.9752096,19.7823987 C30.1356223,21.0329954 29.5064305,22.233755 28.410017,22.8177821 L17.8196593,28.466492 C16.0629059,29.4040501 13.9370473,29.4040501 12.1802939,28.466492 L1.59149366,22.8177821 C0.495080163,22.233755 -0.135669079,21.0329954 0.024743691,19.7823987" id="Stroke-5"></path>
                </g>
            </g>
        </g>
    </g>
</svg>