<?xml version="1.0" encoding="UTF-8"?>
<svg width="30px" height="30px" viewBox="0 0 30 30" version="1.1" xmlns="http://www.w3.org/2000/svg" xmlns:xlink="http://www.w3.org/1999/xlink">
    <title>Group 3</title>
    <defs>
        <polygon id="path-1" points="0 0 30 0 30 30 0 30"></polygon>
    </defs>
    <g id="Startseite" stroke="none" stroke-width="1" fill="none" fill-rule="evenodd">
        <g id="Startseite-2" transform="translate(-143, -7884)">
            <g id="Group-38" transform="translate(0, 7849)">
                <g id="Group-3" transform="translate(143, 35)">
                    <mask id="mask-2" fill="white">
                        <use xlink:href="#path-1"></use>
                    </mask>
                    <g id="Clip-2"></g>
                    <path d="M14.998125,0 C6.71625,0 0,6.88584179 0,15.3801672 C0,22.1740956 4.2975,27.9378286 10.26,29.9733263 C11.01,30.1150261 11.28375,29.6401405 11.28375,29.232275 C11.28375,28.8665364 11.270625,27.8995314 11.263125,26.6165742 C7.09125,27.545282 6.21,24.5542684 6.21,24.5542684 C5.529375,22.777277 4.545,22.3043062 4.545,22.3043062 C3.181875,21.3507052 4.64625,21.3698538 4.64625,21.3698538 C6.151875,21.4790009 6.943125,22.9553591 6.943125,22.9553591 C8.281875,25.3048941 10.455,24.6270332 11.31,24.2325717 C11.445,23.2387586 11.833125,22.5608977 12.2625,22.1760105 C8.9325,21.7872936 5.43,20.4679541 5.43,14.5759254 C5.43,12.8965919 6.015,11.5236362 6.975,10.4474841 C6.819375,10.0587672 6.305625,8.49432541 7.12125,6.3784035 C7.12125,6.3784035 8.38125,5.96479343 11.24625,7.95433448 C12.4425,7.61348914 13.725,7.44306647 15.001875,7.43732189 C16.275,7.44498133 17.559375,7.61348914 18.7575,7.95624934 C21.620625,5.96670829 22.87875,6.38031837 22.87875,6.38031837 C23.69625,8.49815513 23.1825,10.0606821 23.02875,10.449399 C23.990625,11.5255511 24.57,12.8985068 24.57,14.5778403 C24.57,20.4851878 21.06375,21.7853788 17.7225,22.1664362 C18.260625,22.6413218 18.740625,23.5796039 18.740625,25.0138352 C18.740625,27.0703964 18.721875,28.7286664 18.721875,29.232275 C18.721875,29.6439702 18.991875,30.1226855 19.753125,29.9714115 C25.70625,27.9339989 30,22.1721808 30,15.3801672 C30,6.88584179 23.28375,0 14.998125,0" id="Fill-1" fill="#FFFFFF" mask="url(#mask-2)"></path>
                </g>
            </g>
        </g>
    </g>
</svg>