<?xml version="1.0" encoding="UTF-8"?>
<svg width="52px" height="60px" viewBox="0 0 52 60" version="1.1" xmlns="http://www.w3.org/2000/svg" xmlns:xlink="http://www.w3.org/1999/xlink">
    <title>Group 3</title>
    <defs>
        <polygon id="path-1" points="-1.47620441e-15 0 51.0972675 0 51.0972675 60 -1.47620441e-15 60"></polygon>
    </defs>
    <g id="Startseite" stroke="none" stroke-width="1" fill="none" fill-rule="evenodd" opacity="0.7">
        <g id="Startseite-2" transform="translate(-669, -6002)">
            <g id="Group-31" transform="translate(450, 5774)">
                <g id="Group-33" transform="translate(0, 228)">
                    <g id="Group-15" transform="translate(201, 0)">
                        <g id="Group-3" transform="translate(18, 0)">
                            <mask id="mask-2" fill="white">
                                <use xlink:href="#path-1"></use>
                            </mask>
                            <g id="Clip-2"></g>
                            <path d="M48.8984454,51.2894152 C48.0279563,52.0887585 43.179583,54.0452665 41.7273728,55.5728076 C40.2814401,57.0877934 38.3939853,58.3202888 37.2389132,57.9603751 C36.075471,57.5941837 35.0626904,56.0038671 35.5690807,53.6832602 C36.075471,51.368931 36.5128081,48.8327944 36.4416624,47.3826767 C36.3684241,45.932559 36.075471,43.971866 36.4416624,43.6830979 C36.8015761,43.4006075 37.3791122,43.5408064 37.3791122,43.5408064 C37.3791122,43.5408064 37.0945292,46.2903803 38.7580841,47.0206704 C40.4195466,47.7384054 42.8133917,46.7319024 43.5374042,46.0016122 C44.2656019,45.2817847 44.7740847,44.1957658 44.7740847,44.1957658 C44.7740847,44.1957658 45.4960048,44.5619571 45.424859,45.7170293 C45.3516208,46.8741939 45.9291568,48.5461189 47.0193607,49.1215624 C48.1032871,49.6928209 49.7689346,50.4942568 48.8984454,51.2894152 M34.5855954,42.5029156 C34.3177526,43.8191119 34.3177526,48.5691366 34.3177526,48.5691366 C34.3177526,48.5691366 31.4279798,52.5721311 26.9457978,53.229183 C22.4698934,53.8841424 20.230895,53.4133249 20.230895,53.4133249 L17.7135911,50.5256447 C17.7135911,50.5256447 19.6700991,50.2410617 19.3917937,48.2845537 C19.1113957,46.3259531 13.4260136,43.6203223 12.3985854,41.1950894 C11.3753422,38.7740415 12.2144434,34.6664209 13.5201771,32.6136569 C14.8238183,30.5650779 15.6587345,26.0912661 16.9665608,24.5951129 C18.2722944,23.1073298 19.2955377,19.9371591 18.8289053,18.5351694 C18.8289053,18.5351694 21.6266071,21.8936671 23.5810226,21.3370562 C25.5396231,20.7762604 29.9276416,17.5098336 30.5763234,18.072722 C31.2270977,18.6356104 36.8225014,30.9396394 37.3791122,34.858933 C37.9399081,38.7740415 37.0045508,41.7558852 37.0045508,41.7558852 C37.0045508,41.7558852 34.8639008,41.1971819 34.5855954,42.5029156 M18.0944301,55.4995693 C17.797292,56.8366908 16.229993,57.807621 16.229993,57.807621 C14.8112632,58.2533281 10.8647668,56.5416452 9.07775307,55.7904298 C7.29073934,55.0496771 2.74368918,54.8194997 2.14732043,54.1582627 C1.55513673,53.4823781 2.44445855,51.994595 2.67254344,50.5821427 C2.89225824,49.1592278 2.22683627,48.2719985 2.44655107,47.3010684 C2.67254344,46.3343232 5.57696388,46.3343232 6.69227807,45.6647162 C7.8117773,44.9909241 8.03358463,43.0553414 8.92918401,42.5343034 C9.82269088,42.0090804 11.4611356,43.8714249 12.1307426,44.9197784 C12.8003496,45.9576693 15.3343936,50.4314812 16.3764696,51.5488879 C17.4227305,52.6662946 18.3915682,54.1624478 18.0944301,55.4995693 M20.5552359,8.37806791 C21.8170266,8.37806791 22.8402698,9.88049865 22.8402698,11.7323806 C22.8402698,12.0734616 22.808882,12.3873399 22.7440138,12.6928481 C22.4364131,12.7974742 22.1246273,12.9669685 21.8212116,13.2243487 C21.6684575,13.3499 21.5324436,13.4670812 21.4006147,13.5842625 C21.6014968,13.209701 21.6810127,12.6782005 21.5910342,12.1174046 C21.4215399,11.104624 20.7477479,10.3659637 20.0781409,10.4705898 C19.4127189,10.5877711 19.0109547,11.4959256 19.180449,12.5128912 C19.3520358,13.5298569 20.0237353,14.2685171 20.6891573,14.1576135 C20.7268227,14.1513359 20.7623955,14.1408733 20.8021535,14.1283182 C20.47572,14.4401039 20.1764894,14.7100393 19.8709812,14.9381242 C18.9502715,14.5091572 18.2722944,13.2369038 18.2722944,11.730288 C18.2722944,9.87631361 19.2955377,8.37806791 20.5552359,8.37806791 M27.7639739,15.2833903 C28.5633173,15.5596032 29.4526391,16.0806411 29.3584756,16.5954015 C29.2643121,17.1122544 28.8437152,17.1122544 27.7639739,17.7734914 C26.6800476,18.4305433 24.332238,19.884846 23.5810226,19.9790095 C22.8256222,20.0752655 22.4050253,19.6525761 21.6056819,19.1378157 C20.8063385,18.6188702 19.3039078,17.3926524 19.6826542,16.737693 C19.6826542,16.737693 20.852374,15.8420936 21.3671344,15.3733687 C21.8860798,14.9025513 23.2022761,13.7767745 24.0016195,13.923251 C24.8009629,14.059265 26.9646305,15.0008998 27.7639739,15.2833903 M27.9711336,7.81727203 C29.5698203,7.81727203 30.8609064,9.40340365 30.8609064,11.3578191 C30.8609064,12.7472537 30.2122246,13.9441762 29.2664047,14.5258973 C29.0257646,14.4191787 28.7725695,14.3124601 28.5026342,14.1973714 C29.0718001,13.9148809 29.4777494,13.1908683 29.4777494,12.3454895 C29.4777494,11.2427304 28.7955872,10.3492236 27.9523009,10.3492236 C27.1194772,10.3492236 26.4352225,11.244823 26.4352225,12.3454895 C26.4352225,12.7514387 26.533571,13.1448329 26.6988803,13.4649887 C26.2029526,13.2661991 25.7446903,13.0820572 25.3847765,12.9460433 C25.1901719,12.4710408 25.0813608,11.9311701 25.0813608,11.3578191 C25.0813608,9.40340365 26.3724468,7.81727203 27.9711336,7.81727203 M49.7961373,48.9416056 C48.2100057,48.2908312 46.9021795,47.267588 46.996343,45.3048024 C47.0905065,43.3441094 45.5964458,42.0446533 45.5964458,42.0446533 C45.5964458,42.0446533 46.9021795,37.7528908 45.6885168,34.2102512 C44.4769466,30.661334 40.465582,24.9759519 37.3895748,20.6862819 C34.3177526,16.3945194 36.9250349,11.4498901 34.1294256,5.11164117 C31.3296313,-1.22660776 24.0581176,-0.856231378 20.1409165,1.84939948 C16.2216229,4.55084529 17.4331931,11.2636557 17.6173351,14.4401039 C17.8035695,17.6060896 17.701036,19.8639208 17.3411222,20.6841894 C16.9707458,21.504458 14.4492569,24.511412 12.7689618,27.0287159 C11.0907592,29.5439272 9.87918897,34.7689545 8.66134121,36.9137895 C7.44977101,39.0565319 8.29096482,41.0151325 8.29096482,41.0151325 C8.29096482,41.0151325 7.44977101,41.2913454 6.79690417,42.6975201 C6.14403732,44.0911397 4.84039616,44.7460991 2.50723421,45.2064539 C0.176164774,45.6730863 0.176164774,47.171332 0.734868129,48.8495346 C1.29566401,50.5256447 0.736960651,51.4630945 0.0840938086,53.6037444 C-0.568773034,55.7423018 2.69556118,56.4014462 5.86363938,56.7676376 C9.03590263,57.1442915 12.5806348,59.1970555 15.5666636,59.5674319 C18.5464148,59.9419933 19.4817721,57.5188529 19.4817721,57.5188529 C19.4817721,57.5188529 22.8381773,56.7676376 26.3808169,56.6797517 C29.9255491,56.5855882 33.2777692,57.4246895 33.2777692,57.4246895 C33.2777692,57.4246895 33.9306361,58.9166576 35.1422063,59.5674319 C36.3579615,60.2202988 38.9673363,60.3165548 40.6455389,58.5483737 C42.325834,56.7718226 46.803831,54.5391017 49.3190423,53.137112 C51.8426238,51.7330298 51.3801764,49.5902873 49.7961373,48.9416056" id="Fill-1" fill="#FEFEFE" mask="url(#mask-2)"></path>
                        </g>
                    </g>
                </g>
            </g>
        </g>
    </g>
</svg>