<?xml version="1.0" encoding="UTF-8"?>
<svg width="45px" height="56px" viewBox="0 0 45 56" version="1.1" xmlns="http://www.w3.org/2000/svg" xmlns:xlink="http://www.w3.org/1999/xlink">
    <title>Group 6</title>
    <defs>
        <polygon id="path-1" points="0 0 45 0 45 41.8867712 0 41.8867712"></polygon>
    </defs>
    <g id="Startseite" stroke="none" stroke-width="1" fill="none" fill-rule="evenodd" opacity="0.7">
        <g id="Startseite-2" transform="translate(-847, -6007)">
            <g id="Group-31" transform="translate(450, 5774)">
                <g id="Group-33" transform="translate(0, 228)">
                    <g id="Group-16" transform="translate(368, 5)">
                        <g id="Group-6" transform="translate(29, 0)">
                            <path d="M33.121008,0 L33.5139163,0 C33.8294043,3.89230829 32.3429335,6.80137808 30.5371037,8.90721171 C28.7661131,10.9994968 26.338985,13.02791 22.4157086,12.7201641 C22.1524794,8.8839856 23.6408857,6.18975729 25.4447799,4.08973019 C27.1170596,2.13099524 30.1829056,0.387101769 33.121008,0" id="Fill-1" fill="#FEFEFE"></path>
                            <g id="Group-5" transform="translate(0, 13.3101)">
                                <mask id="mask-2" fill="white">
                                    <use xlink:href="#path-1"></use>
                                </mask>
                                <g id="Clip-4"></g>
                                <path d="M45,27.2059366 L45,27.3143251 C43.89676,30.6550134 42.3231913,33.517631 40.405102,36.1731491 C38.651531,38.5847931 36.5050517,41.8306415 32.6708087,41.8306415 C29.3572175,41.8306415 27.156544,39.6996462 23.7597259,39.641581 C20.1674215,39.5835157 18.1932025,41.4241846 14.908644,41.8867712 L13.7879844,41.8867712 C11.3763403,41.5383796 9.43115395,39.6280324 8.01242597,37.907365 C3.83172686,32.8227833 0.601362598,26.2536663 -0.000580652653,17.8477514 L-0.000580652653,15.3780421 C0.254906515,9.36248059 3.17752487,4.47144973 7.06209112,2.1004514 C9.1137305,0.840435139 11.9318314,-0.23377227 15.0712267,0.246233924 C16.4164054,0.455268879 17.7906167,0.915919984 18.9945032,1.37076456 C20.1364534,1.81012507 21.5648589,2.58819963 22.9177796,2.54561843 C23.8332753,2.52045682 24.7448999,2.04238613 25.6681377,1.70560759 C28.3720435,0.728175626 31.0236906,-0.390548486 34.5192196,0.133974411 C38.7192738,0.768821312 41.7018929,2.63658735 43.5425618,5.514689 C39.9909031,7.77729884 37.1805443,11.1837944 37.6605505,17.0038695 C38.0882979,22.2897442 41.1599505,25.3826873 45,27.2059366" id="Fill-3" fill="#FEFEFE" mask="url(#mask-2)"></path>
                            </g>
                        </g>
                    </g>
                </g>
            </g>
        </g>
    </g>
</svg>