<?xml version="1.0" encoding="UTF-8"?>
<svg width="42px" height="42px" viewBox="0 0 42 42" version="1.1" xmlns="http://www.w3.org/2000/svg" xmlns:xlink="http://www.w3.org/1999/xlink">
    <title>Group 19</title>
    <g id="Startseite" stroke="none" stroke-width="1" fill="none" fill-rule="evenodd" stroke-linecap="round" stroke-linejoin="round">
        <g id="Startseite-2" transform="translate(-121, -6337)" stroke="#D7D7D8" stroke-width="2">
            <g id="Group-35" transform="translate(107, 6323)">
                <g id="Group-19" transform="translate(15.5556, 15.5556)">
                    <path d="M16.8966816,10.8144411 L21.5625422,6.14710952 C23.7071906,4.00393207 26.5990827,2.60652741 29.4056596,1.69453701 C34.2759826,0.113263324 38.8888889,0 38.8888889,0 C38.8888889,0 38.7741546,4.6129063 37.1943519,9.48322925 C36.2823615,12.2898062 34.8849568,15.1816983 32.7403084,17.3263467 L19.410539,30.6561162 L8.23277273,19.4768789 L16.8966816,10.8144411 Z" id="Stroke-1"></path>
                    <polyline id="Stroke-3" points="17.4547609 28.6994555 14.9409034 32.8916694 5.99751367 23.9482796 10.1897276 21.4344222"></polyline>
                    <polyline id="Stroke-5" points="28.0748891 21.9926486 27.2364463 29.5386337 20.528904 36.2447051 19.6904612 30.3756056"></polyline>
                    <polyline id="Stroke-7" points="8.51269495 19.1976922 2.64359541 18.3592494 9.35113774 11.6517071 16.8956519 10.8132643"></polyline>
                    <line x1="8.23291983" y1="30.6556749" x2="0" y2="38.8885947" id="Stroke-9"></line>
                    <line x1="10.4690615" y1="32.891081" x2="5.58844185" y2="37.7717006" id="Stroke-11"></line>
                    <line x1="5.99751367" y1="28.4195332" x2="1.11689405" y2="33.3001529" id="Stroke-13"></line>
                    <path d="M27.7105342,16.7670907 C26.1675053,18.3101196 23.6639446,18.3101196 22.1209156,16.7670907 C20.5778867,15.2240618 20.5778867,12.721972 22.1209156,11.1774721 C23.6639446,9.63444315 26.1675053,9.63444315 27.7105342,11.1774721 C29.2535632,12.721972 29.2535632,15.2240618 27.7105342,16.7670907 Z" id="Stroke-15"></path>
                    <line x1="29.4052184" y1="1.69453701" x2="37.1939106" y2="9.48322925" id="Stroke-17"></line>
                </g>
            </g>
        </g>
    </g>
</svg>