<?xml version="1.0" encoding="UTF-8" standalone="no"?>
<!-- Created with Inkscape (http://www.inkscape.org/) -->

<svg
   width="25.34749mm"
   height="7.1879272mm"
   viewBox="0 0 25.347491 7.1879272"
   version="1.1"
   id="svg1441"
   xmlns="http://www.w3.org/2000/svg"
   xmlns:svg="http://www.w3.org/2000/svg">
  <defs
     id="defs1438" />
  <g
     id="layer1"
     transform="translate(-109.89523,-88.68014)">
    <g
       id="g1157"
       transform="translate(-57.774531,-1.9743429)">
      <g
         id="g1340"
         transform="translate(0,-0.03817156)">
        <path
           id="path97708-03-0"
           style="fill:#895bf6;fill-opacity:1;stroke:none;stroke-width:0.62697;stroke-miterlimit:4;stroke-dasharray:none;stroke-opacity:0.998041"
           d="m 172.82,90.692654 a 3.2712705,3.310705 0 0 0 -3.27163,3.310909 3.2712705,3.310705 0 0 0 3.27163,3.310908 3.2712705,3.310705 0 0 0 3.27112,-3.310908 3.2712705,3.310705 0 0 0 -3.27112,-3.310909 z m 0.0274,0.58601 a 2.690823,2.7334022 0 0 1 2.69079,2.733685 2.690823,2.7334022 0 0 1 -2.69079,2.733165 2.690823,2.7334022 0 0 1 -2.69079,-2.733165 2.690823,2.7334022 0 0 1 2.69079,-2.733685 z" />
        <path
           id="path97708-03-0-5"
           style="opacity:0.6;fill:#895bf6;fill-opacity:1;stroke:none;stroke-width:0.62697;stroke-miterlimit:4;stroke-dasharray:none;stroke-opacity:0.998041"
           d="m 171.8807,90.975709 a 3.2712705,3.310705 0 0 0 -3.27164,3.310909 3.2712705,3.310705 0 0 0 3.27164,3.310908 3.2712705,3.310705 0 0 0 3.27111,-3.310908 3.2712705,3.310705 0 0 0 -3.27111,-3.310909 z m 0.0274,0.58601 a 2.690823,2.7334022 0 0 1 2.69079,2.733686 2.690823,2.7334022 0 0 1 -2.69079,2.733164 2.690823,2.7334022 0 0 1 -2.6908,-2.733164 2.690823,2.7334022 0 0 1 2.6908,-2.733686 z" />
        <path
           id="path97708-03-0-5-1"
           style="opacity:0.33;fill:#895bf6;fill-opacity:1;stroke:none;stroke-width:0.62697;stroke-miterlimit:4;stroke-dasharray:none;stroke-opacity:0.998041"
           d="m 170.9414,91.258764 a 3.2712705,3.310705 0 0 0 -3.27164,3.310909 3.2712705,3.310705 0 0 0 3.27164,3.310908 3.2712705,3.310705 0 0 0 3.27111,-3.310908 3.2712705,3.310705 0 0 0 -3.27111,-3.310909 z m 0.0274,0.58601 a 2.690823,2.7334022 0 0 1 2.69079,2.733686 2.690823,2.7334022 0 0 1 -2.69079,2.733164 2.690823,2.7334022 0 0 1 -2.6908,-2.733164 2.690823,2.7334022 0 0 1 2.6908,-2.733686 z" />
      </g>
      <g
         id="g1180"
         transform="translate(-1.3624448,-0.08741859)"
         style="fill:#000000">
        <g
           id="g53715-9-9"
           transform="translate(1.7908142,27.030283)"
           style="fill:#000000">
          <path
             d="m 177.94445,69.565314 v -3.63855 q 0,-0.4699 0.2921,-0.73025 0.29845,-0.2667 0.8001,-0.2667 h 0.53975 v 0.7874 h -0.55245 q -0.0508,0 -0.0889,0.0381 -0.0381,0.0381 -0.0381,0.0889 v 3.7211 z m -0.50165,-2.33045 v -0.8001 h 2.1336 v 0.8001 z"
             style="font-weight:800;font-size:24px;line-height:1.25;font-family:SUSE;-inkscape-font-specification:'SUSE Ultra-Bold';font-variant-ligatures:none;white-space:pre;fill:#000000;stroke-width:0.264583"
             id="path46167-2-6" />
          <path
             d="m 181.34663,69.567507 q -0.46988,-0.0043 -0.74709,-0.248076 -0.27079,-0.250113 -0.26676,-0.694597 l 0.0301,-3.327263 0.42158,0.429284 -0.88897,-0.008 0.007,-0.800066 1.41599,0.01283 -0.0337,3.720947 q -5.3e-4,0.0508 0.0374,0.08922 0.0378,0.03844 0.0885,0.0389 l 0.36194,0.0033 -0.007,0.787368 z"
             style="font-weight:800;font-size:24px;line-height:1.25;font-family:SUSE;-inkscape-font-specification:'SUSE Ultra-Bold';font-variant-ligatures:none;white-space:pre;fill:#000000;stroke-width:0.264583"
             id="path46169-8-0" />
          <path
             d="m 182.26243,69.565314 v -2.7559 l 0.42545,0.42545 h -0.9525 v -0.8001 h 1.47955 v 3.13055 z m -0.0445,-3.6957 v -0.9398 h 1.0541 v 0.9398 z"
             style="font-weight:800;font-size:24px;line-height:1.25;font-family:SUSE;-inkscape-font-specification:'SUSE Ultra-Bold';font-variant-ligatures:none;white-space:pre;fill:#000000;stroke-width:0.264583"
             id="path46171-8-4" />
          <path
             d="m 185.26597,69.565314 q -0.1778,0 -0.3683,-0.0381 -0.18415,-0.0381 -0.3429,-0.14605 -0.15875,-0.10795 -0.26035,-0.3048 -0.0953,-0.19685 -0.0953,-0.51435 v -2.8829 h 0.9525 v 2.9591 q 0,0.0508 0.0381,0.0889 0.0381,0.0381 0.0889,0.0381 h 0.51435 v 0.8001 z m -1.55575,-2.33045 v -0.8001 h 2.0828 v 0.8001 z"
             style="font-weight:800;font-size:24px;line-height:1.25;font-family:SUSE;-inkscape-font-specification:'SUSE Ultra-Bold';font-variant-ligatures:none;white-space:pre;fill:#000000;stroke-width:0.264583"
             id="path46173-8-1" />
          <path
             d="m 187.74245,69.628814 q -0.47625,0 -0.8382,-0.19685 -0.3556,-0.2032 -0.5588,-0.56515 -0.2032,-0.36195 -0.2032,-0.84455 v -0.0635 q 0,-0.4445 0.1905,-0.8001 0.1905,-0.36195 0.5334,-0.5715 0.3429,-0.2159 0.8001,-0.2159 0.4953,0 0.8382,0.2413 0.34925,0.23495 0.50165,0.66675 0.15875,0.4318 0.0825,1.016 h -2.2606 v -0.61595 h 1.75895 l -0.42545,0.3048 q 0.0508,-0.28575 -0.006,-0.47625 -0.0508,-0.19685 -0.1778,-0.29845 -0.127,-0.1016 -0.3048,-0.1016 -0.20955,0 -0.3429,0.1143 -0.127,0.1143 -0.1905,0.3048 -0.0572,0.1905 -0.0572,0.4318 v 0.1905 q 0,0.2032 0.0762,0.36195 0.0825,0.1524 0.2413,0.2413 0.15875,0.08255 0.3937,0.08255 0.2286,0 0.3683,-0.06985 0.1397,-0.0762 0.26035,-0.2032 l 0.53975,0.55245 q -0.19685,0.26035 -0.508,0.38735 -0.31115,0.127 -0.7112,0.127 z"
             style="font-weight:800;font-size:24px;line-height:1.25;font-family:SUSE;-inkscape-font-specification:'SUSE Ultra-Bold';font-variant-ligatures:none;white-space:pre;fill:#000000;stroke-width:0.264583"
             id="path46175-6-0" />
          <path
             d="m 190.67614,69.616114 q -0.40005,0 -0.71755,-0.10795 -0.3175,-0.1143 -0.5334,-0.2667 l 0.40005,-0.64135 q 0.2032,0.12065 0.41275,0.2032 0.2159,0.08255 0.43815,0.08255 0.17145,0 0.27305,-0.05715 0.1016,-0.0635 0.1016,-0.1651 0,-0.1143 -0.10795,-0.1651 -0.10795,-0.05715 -0.2794,-0.09525 -0.1651,-0.04445 -0.3556,-0.09525 -0.1905,-0.05715 -0.36195,-0.1524 -0.1651,-0.1016 -0.27305,-0.2794 -0.10795,-0.18415 -0.10795,-0.4826 0,-0.45085 0.33655,-0.7366 0.3429,-0.28575 0.9398,-0.28575 0.3175,0 0.6096,0.08255 0.2921,0.0762 0.5207,0.22225 l -0.4064,0.635 q -0.1778,-0.10795 -0.3683,-0.1651 -0.18415,-0.05715 -0.3683,-0.05715 -0.1651,0 -0.26035,0.0635 -0.0952,0.05715 -0.0952,0.15875 0,0.10795 0.10795,0.1651 0.1143,0.05715 0.28575,0.1016 0.1778,0.0381 0.3683,0.09525 0.19685,0.05715 0.3683,0.1651 0.1778,0.1016 0.28575,0.28575 0.1143,0.1778 0.1143,0.47625 0,0.29845 -0.17145,0.52705 -0.17145,0.2286 -0.4699,0.36195 -0.29845,0.127 -0.6858,0.127 z"
             style="font-weight:800;font-size:24px;line-height:1.25;font-family:SUSE;-inkscape-font-specification:'SUSE Ultra-Bold';font-variant-ligatures:none;white-space:pre;fill:#000000;stroke-width:0.264583"
             id="path46177-8-4" />
        </g>
        <g
           id="g53715-4-3-8"
           transform="translate(1.7360942,26.824771)"
           style="opacity:0.277431;fill:#000000">
          <path
             d="m 177.75199,69.509729 0.30526,-3.625722 q 0.0394,-0.468244 0.35234,-0.70317 0.31977,-0.240721 0.81965,-0.198635 l 0.53785,0.04528 -0.0661,0.784624 -0.5505,-0.04635 q -0.0506,-0.0043 -0.0918,0.03051 -0.0412,0.03477 -0.0454,0.08539 l -0.31218,3.707982 z m -0.30436,-2.36432 0.0671,-0.797279 2.12608,0.178999 -0.0671,0.797279 z"
             style="font-weight:800;font-size:24px;line-height:1.25;font-family:SUSE;-inkscape-font-specification:'SUSE Ultra-Bold';font-variant-ligatures:none;white-space:pre;fill:#000000;stroke-width:0.264583"
             id="path46167-6-83-7" />
          <path
             d="m 180.97761,69.619062 q -0.46344,-0.07764 -0.69918,-0.361715 -0.2284,-0.289337 -0.155,-0.727737 l 0.5494,-3.281729 0.34936,0.48986 -0.87681,-0.146746 0.13187,-0.789154 1.39661,0.233829 -0.61444,3.670019 q -0.008,0.05009 0.023,0.09397 0.0313,0.04387 0.0813,0.05224 l 0.35699,0.05979 -0.12989,0.776612 z"
             style="font-weight:800;font-size:24px;line-height:1.25;font-family:SUSE;-inkscape-font-specification:'SUSE Ultra-Bold';font-variant-ligatures:none;white-space:pre;fill:#000000;stroke-width:0.264583"
             id="path46169-2-3-0" />
          <path
             d="m 181.91088,69.515384 0.41884,-2.723886 0.35585,0.485167 -0.94143,-0.144761 0.1216,-0.790805 1.46236,0.224861 -0.47578,3.094185 z m 0.5177,-3.659532 0.14282,-0.928883 1.04185,0.160203 -0.14282,0.928882 z"
             style="font-weight:800;font-size:24px;line-height:1.25;font-family:SUSE;-inkscape-font-specification:'SUSE Ultra-Bold';font-variant-ligatures:none;white-space:pre;fill:#000000;stroke-width:0.264583"
             id="path46171-6-3-8" />
          <path
             d="m 184.88633,69.627718 q -0.17454,-0.03388 -0.35429,-0.107574 -0.17352,-0.07249 -0.30879,-0.208707 -0.13528,-0.136218 -0.19751,-0.34882 -0.056,-0.211402 0.004,-0.523085 l 0.54928,-2.830091 0.93505,0.181479 -0.56379,2.904894 q -0.01,0.04987 0.0205,0.09453 0.0301,0.04466 0.08,0.05434 l 0.50493,0.098 -0.15244,0.785443 z m -1.08323,-2.584175 0.15244,-0.785443 2.04465,0.396832 -0.15245,0.785444 z"
             style="font-weight:800;font-size:24px;line-height:1.25;font-family:SUSE;-inkscape-font-specification:'SUSE Ultra-Bold';font-variant-ligatures:none;white-space:pre;fill:#000000;stroke-width:0.264583"
             id="path46173-7-80-6" />
          <path
             d="m 187.47766,69.625928 q -0.46998,-0.07698 -0.79536,-0.329751 -0.31807,-0.258007 -0.46009,-0.648043 -0.14203,-0.390036 -0.064,-0.86629 l 0.0103,-0.06267 q 0.0718,-0.438654 0.31732,-0.758785 0.2465,-0.326397 0.61877,-0.477764 0.37329,-0.157634 0.82447,-0.08373 0.48879,0.08006 0.78818,0.373616 0.30668,0.288314 0.38727,0.73907 0.0869,0.451782 -0.0828,1.015974 l -2.23087,-0.365409 0.0996,-0.60785 1.73582,0.284321 -0.46912,0.232021 q 0.0963,-0.273781 0.0711,-0.470957 -0.0183,-0.202472 -0.12722,-0.323265 -0.10891,-0.120792 -0.28437,-0.149532 -0.20679,-0.03387 -0.35687,0.05737 -0.1438,0.09227 -0.23726,0.269999 -0.0872,0.178749 -0.12624,0.416875 l -0.0308,0.187995 q -0.0328,0.200528 0.0167,0.369508 0.0568,0.163731 0.19913,0.277131 0.14331,0.107125 0.37518,0.145103 0.22559,0.03695 0.37474,-0.0094 0.15018,-0.05262 0.28977,-0.158444 l 0.44336,0.632432 q -0.23635,0.225107 -0.56393,0.300141 -0.32759,0.07503 -0.72238,0.01037 z"
             style="font-weight:800;font-size:24px;line-height:1.25;font-family:SUSE;-inkscape-font-specification:'SUSE Ultra-Bold';font-variant-ligatures:none;white-space:pre;fill:#000000;stroke-width:0.264583"
             id="path46175-5-4-2" />
          <path
             d="m 190.40201,69.586238 q -0.39428,-0.06773 -0.68892,-0.227876 -0.29356,-0.166404 -0.48054,-0.353157 l 0.50285,-0.564361 q 0.17984,0.153311 0.37239,0.270147 0.19881,0.117911 0.41785,0.155539 0.16898,0.02903 0.27879,-0.0101 0.11088,-0.04538 0.12808,-0.145515 0.0194,-0.11265 -0.0784,-0.180993 -0.0967,-0.0746 -0.25924,-0.141179 -0.15519,-0.07176 -0.33434,-0.154079 -0.17807,-0.08858 -0.33092,-0.21148 -0.14552,-0.128085 -0.22181,-0.321595 -0.0752,-0.199768 -0.0247,-0.493909 0.0763,-0.444342 0.4564,-0.668987 0.38633,-0.223571 0.97461,-0.122513 0.31292,0.05375 0.58682,0.184566 0.27499,0.124554 0.47556,0.307199 l -0.50804,0.557027 q -0.15696,-0.136494 -0.33503,-0.225071 -0.17182,-0.0875 -0.35331,-0.11868 -0.16272,-0.02795 -0.26734,0.01851 -0.1035,0.04021 -0.12071,0.140341 -0.0183,0.106391 0.0784,0.180993 0.10298,0.07568 0.26443,0.148512 0.16878,0.06765 0.34685,0.156229 0.18434,0.08965 0.33504,0.225072 0.15803,0.130235 0.23324,0.330003 0.0825,0.194585 0.032,0.488727 -0.0505,0.294141 -0.25821,0.490414 -0.20767,0.196272 -0.52439,0.277168 -0.31565,0.07464 -0.6974,0.0091 z"
             style="font-weight:800;font-size:24px;line-height:1.25;font-family:SUSE;-inkscape-font-specification:'SUSE Ultra-Bold';font-variant-ligatures:none;white-space:pre;fill:#000000;stroke-width:0.264583"
             id="path46177-6-7-4" />
        </g>
        <g
           id="g53715-4-9-6-7"
           transform="translate(2.0597242,26.779396)"
           style="opacity:0.189503;fill:#000000">
          <path
             d="m 177.3957,69.337733 0.9003,-3.525408 q 0.11624,-0.455293 0.46371,-0.635268 0.35515,-0.18456 0.8412,-0.06044 l 0.52297,0.13355 -0.19486,0.762909 -0.53527,-0.136696 q -0.0492,-0.0126 -0.0956,0.01492 -0.0464,0.02748 -0.0589,0.07671 l -0.92072,3.605394 z m 0.0906,-2.382108 0.19795,-0.775224 2.06726,0.527922 -0.19795,0.775225 z"
             style="font-weight:800;font-size:24px;line-height:1.25;font-family:SUSE;-inkscape-font-specification:'SUSE Ultra-Bold';font-variant-ligatures:none;white-space:pre;fill:#000000;stroke-width:0.264583"
             id="path46167-6-8-8-9" />
          <path
             d="m 180.58963,69.601658 q -0.4446,-0.152113 -0.6309,-0.470803 -0.17821,-0.322685 -0.0344,-0.743267 l 1.07677,-3.148357 0.26488,0.540237 -0.84119,-0.287649 0.25869,-0.757121 1.33985,0.458261 -1.2042,3.520862 q -0.0161,0.04812 0.007,0.09646 0.0237,0.04838 0.0717,0.06479 l 0.34248,0.117157 -0.2547,0.745071 z"
             style="font-weight:800;font-size:24px;line-height:1.25;font-family:SUSE;-inkscape-font-specification:'SUSE Ultra-Bold';font-variant-ligatures:none;white-space:pre;fill:#000000;stroke-width:0.264583"
             id="path46169-2-7-9-3" />
          <path
             d="m 181.54785,69.354442 0.87136,-2.614521 0.26911,0.538142 -0.90364,-0.30116 0.25298,-0.759053 1.40365,0.467801 -0.98982,2.969952 z m 1.1263,-3.520177 0.29713,-0.891589 1.00002,0.333284 -0.29713,0.891589 z"
             style="font-weight:800;font-size:24px;line-height:1.25;font-family:SUSE;-inkscape-font-specification:'SUSE Ultra-Bold';font-variant-ligatures:none;white-space:pre;fill:#000000;stroke-width:0.264583"
             id="path46171-6-2-0-9" />
          <path
             d="m 184.61055,69.60603 q -0.16803,-0.05813 -0.3356,-0.156406 -0.16158,-0.09621 -0.27632,-0.250122 -0.11474,-0.153915 -0.1464,-0.373163 -0.0257,-0.217182 0.0776,-0.517306 l 0.94244,-2.724504 0.90017,0.311379 -0.96735,2.796517 q -0.0169,0.04796 0.007,0.09647 0.0235,0.04846 0.0716,0.06507 l 0.48609,0.168146 -0.26156,0.75614 z m -0.70843,-2.710992 0.26156,-0.75614 1.96837,0.680881 -0.26157,0.756139 z"
             style="font-weight:800;font-size:24px;line-height:1.25;font-family:SUSE;-inkscape-font-specification:'SUSE Ultra-Bold';font-variant-ligatures:none;white-space:pre;fill:#000000;stroke-width:0.264583"
             id="path46173-7-8-6-2" />
          <path
             d="m 187.18997,69.571699 q -0.44841,-0.160422 -0.72291,-0.467696 -0.26636,-0.311107 -0.33576,-0.720352 -0.0694,-0.409246 0.0932,-0.863639 l 0.0214,-0.05979 q 0.14968,-0.418531 0.44888,-0.689171 0.30129,-0.276627 0.69474,-0.358422 0.39559,-0.08778 0.82606,0.06623 0.46636,0.166841 0.70794,0.509548 0.2497,0.338865 0.24773,0.796764 0.004,0.460046 -0.26455,0.984415 l -2.12848,-0.761486 0.20752,-0.579946 1.65615,0.592505 -0.50325,0.143674 q 0.14406,-0.251942 0.15481,-0.450431 0.0185,-0.202455 -0.0669,-0.3409 -0.0854,-0.138442 -0.25276,-0.198334 -0.1973,-0.07058 -0.36137,-0.0079 -0.15807,0.06484 -0.28203,0.222818 -0.11799,0.160106 -0.19931,0.387297 l -0.0642,0.179365 q -0.0684,0.191333 -0.0502,0.366467 0.0264,0.171287 0.14592,0.308482 0.12166,0.131199 0.34289,0.210344 0.21523,0.077 0.37029,0.05829 0.15721,-0.02469 0.31358,-0.103626 l 0.32212,0.701981 q -0.27305,0.178825 -0.60878,0.193592 -0.33575,0.01476 -0.71242,-0.119992 z"
             style="font-weight:800;font-size:24px;line-height:1.25;font-family:SUSE;-inkscape-font-specification:'SUSE Ultra-Bold';font-variant-ligatures:none;white-space:pre;fill:#000000;stroke-width:0.264583"
             id="path46175-5-2-87-8" />
          <path
             d="m 190.17438,69.525291 q -0.38022,-0.12442 -0.6484,-0.325763 -0.2662,-0.207376 -0.42399,-0.419366 l 0.57967,-0.485124 q 0.1556,0.177864 0.32908,0.321492 0.17952,0.145604 0.39075,0.214726 0.16295,0.05333 0.27729,0.0306 0.1163,-0.02875 0.1479,-0.125314 0.0356,-0.108625 -0.0512,-0.19048 -0.0848,-0.08789 -0.23592,-0.177423 -0.14308,-0.09359 -0.30834,-0.201121 -0.16327,-0.113565 -0.2966,-0.257412 -0.12531,-0.147909 -0.17261,-0.350466 -0.0453,-0.208589 0.0475,-0.492241 0.14019,-0.428496 0.54895,-0.595399 0.41476,-0.164934 0.98206,0.02071 0.30176,0.09874 0.55369,0.268048 0.25392,0.163268 0.42576,0.373172 l -0.58374,0.477113 q -0.13541,-0.157895 -0.29868,-0.271457 -0.15725,-0.111587 -0.33227,-0.168861 -0.15691,-0.05135 -0.26718,-0.02062 -0.10825,0.02471 -0.13986,0.121268 -0.0336,0.102593 0.0512,0.19048 0.0909,0.08987 0.23999,0.185434 0.15713,0.09151 0.3204,0.20507 0.16932,0.115536 0.2987,0.271459 0.13738,0.151858 0.1827,0.360448 0.0533,0.204524 -0.0395,0.488178 -0.0928,0.283652 -0.32687,0.447588 -0.23403,0.163941 -0.55916,0.197856 -0.32315,0.02788 -0.69129,-0.09255 z"
             style="font-weight:800;font-size:24px;line-height:1.25;font-family:SUSE;-inkscape-font-specification:'SUSE Ultra-Bold';font-variant-ligatures:none;white-space:pre;fill:#000000;stroke-width:0.264583"
             id="path46177-6-9-9-3" />
        </g>
      </g>
    </g>
  </g>
</svg>
