<?xml version="1.0" encoding="UTF-8" standalone="no"?>
<!-- Created with Inkscape (http://www.inkscape.org/) -->

<svg
   width="8.42136mm"
   height="7.1879272mm"
   viewBox="0 0 8.4213602 7.1879272"
   version="1.1"
   id="svg1441"
   xmlns="http://www.w3.org/2000/svg"
   xmlns:svg="http://www.w3.org/2000/svg">
  <defs
     id="defs1438" />
  <g
     id="layer1"
     transform="translate(-109.89523,-88.68014)">
    <g
       id="g1157"
       transform="translate(-57.774531,-1.9743429)">
      <g
         id="g1340"
         transform="translate(0,-0.03817156)">
        <path
           id="path97708-03-0"
           style="fill:#895bf6;fill-opacity:1;stroke:none;stroke-width:0.62697;stroke-miterlimit:4;stroke-dasharray:none;stroke-opacity:0.998041"
           d="m 172.82,90.692654 a 3.2712705,3.310705 0 0 0 -3.27163,3.310909 3.2712705,3.310705 0 0 0 3.27163,3.310908 3.2712705,3.310705 0 0 0 3.27112,-3.310908 3.2712705,3.310705 0 0 0 -3.27112,-3.310909 z m 0.0274,0.58601 a 2.690823,2.7334022 0 0 1 2.69079,2.733685 2.690823,2.7334022 0 0 1 -2.69079,2.733165 2.690823,2.7334022 0 0 1 -2.69079,-2.733165 2.690823,2.7334022 0 0 1 2.69079,-2.733685 z" />
        <path
           id="path97708-03-0-5"
           style="opacity:0.6;fill:#895bf6;fill-opacity:1;stroke:none;stroke-width:0.62697;stroke-miterlimit:4;stroke-dasharray:none;stroke-opacity:0.998041"
           d="m 171.8807,90.975709 a 3.2712705,3.310705 0 0 0 -3.27164,3.310909 3.2712705,3.310705 0 0 0 3.27164,3.310908 3.2712705,3.310705 0 0 0 3.27111,-3.310908 3.2712705,3.310705 0 0 0 -3.27111,-3.310909 z m 0.0274,0.58601 a 2.690823,2.7334022 0 0 1 2.69079,2.733686 2.690823,2.7334022 0 0 1 -2.69079,2.733164 2.690823,2.7334022 0 0 1 -2.6908,-2.733164 2.690823,2.7334022 0 0 1 2.6908,-2.733686 z" />
        <path
           id="path97708-03-0-5-1"
           style="opacity:0.33;fill:#895bf6;fill-opacity:1;stroke:none;stroke-width:0.62697;stroke-miterlimit:4;stroke-dasharray:none;stroke-opacity:0.998041"
           d="m 170.9414,91.258764 a 3.2712705,3.310705 0 0 0 -3.27164,3.310909 3.2712705,3.310705 0 0 0 3.27164,3.310908 3.2712705,3.310705 0 0 0 3.27111,-3.310908 3.2712705,3.310705 0 0 0 -3.27111,-3.310909 z m 0.0274,0.58601 a 2.690823,2.7334022 0 0 1 2.69079,2.733686 2.690823,2.7334022 0 0 1 -2.69079,2.733164 2.690823,2.7334022 0 0 1 -2.6908,-2.733164 2.690823,2.7334022 0 0 1 2.6908,-2.733686 z" />
      </g>
    </g>
  </g>
</svg>
