<?xml version="1.0" encoding="UTF-8"?>
<svg width="470px" height="480px" viewBox="0 0 470 480" version="1.1" xmlns="http://www.w3.org/2000/svg" xmlns:xlink="http://www.w3.org/1999/xlink">
    <title>Group 39</title>
    <defs>
        <polygon id="path-1" points="0 0 352 0 352 352 0 352"></polygon>
        <filter x="-1.5%" y="-1.5%" width="102.9%" height="102.9%" filterUnits="objectBoundingBox" id="filter-3">
            <feGaussianBlur stdDeviation="2" in="SourceGraphic"></feGaussianBlur>
        </filter>
        <filter x="-1.5%" y="-1.5%" width="102.9%" height="102.9%" filterUnits="objectBoundingBox" id="filter-4">
            <feGaussianBlur stdDeviation="2" in="SourceGraphic"></feGaussianBlur>
        </filter>
    </defs>
    <g id="Startseite" stroke="none" stroke-width="1" fill="none" fill-rule="evenodd">
        <g id="Startseite-2" transform="translate(-934, -221)">
            <g id="Group-39" transform="translate(941, 228)">
                <g id="Group-20" transform="translate(45, 43)">
                    <polygon id="Fill-1" fill="#FFFFFF" points="176 103.419903 176 176.39413 151.773568 176.39413 151.773568 200.719101 103.321389 200.719101 103.321389 176.39413 79.1011236 176.39413 79.1011236 103.419903 103.321389 103.419903 103.321389 79.1011236 151.773568 79.1011236 151.773568 103.419903"></polygon>
                    <polygon id="Fill-2" fill="#FFFFFF" points="151.789843 103.41302 151.789843 79.1011236 103.31128 79.1011236 103.31128 103.41302 79.1011236 103.41302 79.1011236 176.407205 103.31128 176.407205 103.31128 200.719101 151.789843 200.719101 151.789843 176.407205 176 176.407205 176 103.41302"></polygon>
                    <polygon id="Fill-3" fill="#FFFFFF" points="321.348315 103.41302 321.348315 176.407205 297.079394 176.407205 297.079394 200.719101 248.659424 200.719101 248.659424 176.407205 224.449438 176.407205 224.449438 103.41302 248.659424 103.41302 248.659424 79.1011236 297.079394 79.1011236 297.079394 103.41302"></polygon>
                    <polygon id="Fill-4" fill="#336A93" points="101.842697 200.719101 151.280899 200.719101 151.280899 151.280899 101.842697 151.280899"></polygon>
                    <polygon id="Fill-5" fill="#336A93" points="248.179775 200.719101 297.617978 200.719101 297.617978 151.280899 248.179775 151.280899"></polygon>
                    <polygon id="Fill-6" fill="#FFFFFF" points="176 103.419903 176 176.39413 151.773568 176.39413 151.773568 200.719101 103.321389 200.719101 103.321389 176.39413 79.1011236 176.39413 79.1011236 103.419903 103.321389 103.419903 103.321389 79.1011236 151.773568 79.1011236 151.773568 103.419903"></polygon>
                    <polygon id="Fill-7" fill="#FFFFFF" points="151.789843 103.41302 151.789843 79.1011236 103.31128 79.1011236 103.31128 103.41302 79.1011236 103.41302 79.1011236 176.407205 103.31128 176.407205 103.31128 200.719101 151.789843 200.719101 151.789843 176.407205 176 176.407205 176 103.41302"></polygon>
                    <polygon id="Fill-8" fill="#008F9B" points="296.629213 103.820225 321.348315 103.820225 321.348315 79.1011236 296.629213 79.1011236"></polygon>
                    <polygon id="Fill-9" fill="#FFFFFF" points="321.348315 103.41302 321.348315 176.407205 297.079394 176.407205 297.079394 200.719101 248.659424 200.719101 248.659424 176.407205 224.449438 176.407205 224.449438 103.41302 248.659424 103.41302 248.659424 79.1011236 297.079394 79.1011236 297.079394 103.41302"></polygon>
                    <path d="M176.000687,176.000344 L151.722032,176.000344 L151.722032,151.721738 L103.106307,151.721738 L103.106307,176.000344 L78.8276518,176.000344 L78.8276518,103.106111 L103.106307,103.106111 L103.106307,78.8275045 L151.722032,78.8275045 L151.722032,103.106111 L176.000687,103.106111 L176.000687,176.000344 Z M321.790135,127.384717 L321.790135,176.000344 L297.453065,176.000344 L297.453065,151.721738 L248.895755,151.721738 L248.895755,176.000344 L224.6171,176.000344 L224.6171,103.106111 L248.895755,103.106111 L248.895755,78.8275045 L297.453065,78.8275045 L297.453065,54.5488985 L273.17441,54.5488985 L273.17441,30.2111903 L248.895755,30.2111903 L248.895755,5.93258427 L103.106307,5.93258427 L103.106307,30.2111903 L78.8276518,30.2111903 L78.8276518,54.5482113 L54.5489967,54.5482113 L54.5489967,78.8268173 L30.2112394,78.8268173 L30.2112394,127.384029 L5.93258427,127.384029 L5.93258427,321.78881 L30.2112394,321.78881 L30.2112394,346.067416 L78.8269646,346.067416 L78.8269646,321.78881 L103.10562,321.78881 L103.10562,297.451789 L127.384275,297.451789 L127.384275,321.78881 L151.721345,321.78881 L151.721345,346.067416 L200.278655,346.067416 L200.278655,321.78881 L224.615725,321.78881 L224.615725,297.451789 L248.89438,297.451789 L248.89438,321.78881 L273.173035,321.78881 L273.173035,346.067416 L321.788761,346.067416 L321.788761,321.78881 L346.067416,321.78881 L346.067416,127.384029 L321.790135,127.384029 L321.790135,127.384717 Z" id="Fill-10" fill="#008F9B"></path>
                    <path d="M176.385119,176.000344 L128.54115,176.000344 L128.54115,151.721738 L103.325964,151.721738 L103.325964,176.000344 L55.481306,176.000344 L55.481306,103.106111 L79.814842,103.106111 L79.814842,78.8275045 L152.051583,78.8275045 L152.051583,103.106111 L176.385119,103.106111 L176.385119,176.000344 Z M322.504117,127.384717 L322.504117,176.000344 L274.600913,176.000344 L274.600913,151.721738 L249.444274,151.721738 L249.444274,176.000344 L201.600305,176.000344 L201.600305,103.106111 L225.933841,103.106111 L225.933841,78.8275045 L274.600913,78.8275045 L274.600913,54.5488985 L250.267377,54.5488985 L250.267377,30.2111903 L225.933841,30.2111903 L225.933841,5.93258427 L103.325964,5.93258427 L103.325964,30.2111903 L78.992428,30.2111903 L78.992428,54.5482113 L54.658892,54.5482113 L54.658892,78.8268173 L30.2661202,78.8268173 L30.2661202,127.384029 L5.93258427,127.384029 L5.93258427,321.78881 L30.2661202,321.78881 L30.2661202,346.067416 L55.481306,346.067416 L55.481306,321.78881 L79.814842,321.78881 L79.814842,297.451789 L127.658811,297.451789 L127.658811,321.78881 L152.050894,321.78881 L152.050894,346.067416 L177.207533,346.067416 L177.207533,321.78881 L201.599616,321.78881 L201.599616,297.451789 L249.443585,297.451789 L249.443585,321.78881 L273.777121,321.78881 L273.777121,346.067416 L298.992307,346.067416 L298.992307,321.78881 L323.325843,321.78881 L323.325843,127.384029 L322.504117,127.384029 L322.504117,127.384717 Z" id="Fill-11" fill="#00C2D7"></path>
                    <polygon id="Fill-12" fill="#000000" points="101.842697 200.719101 151.280899 200.719101 151.280899 151.280899 101.842697 151.280899"></polygon>
                    <polygon id="Fill-13" fill="#000000" points="248.179775 200.719101 297.617978 200.719101 297.617978 151.280899 248.179775 151.280899"></polygon>
                    <g id="Group-19">
                        <path d="M170.134892,170.133562 L157.565231,170.133562 L157.565231,151.696875 C157.565918,150.140375 156.948539,148.647812 155.847843,147.547812 C154.747146,146.447125 153.254572,145.82975 151.698748,145.830438 L103.086618,145.830438 C101.530106,145.82975 100.037532,146.447125 98.9375229,147.547812 C97.8368269,148.6485 97.219447,150.141062 97.2201345,151.696875 L97.2201345,170.133562 L84.6504738,170.133562 L84.6504738,108.951562 L103.087305,108.951562 C104.643818,108.95225 106.136392,108.334875 107.2364,107.234188 C108.337096,106.1335 108.954476,104.640938 108.953789,103.085125 L108.953789,84.6484375 L145.832952,84.6484375 L145.832952,103.085125 C145.832264,104.641625 146.449644,106.134188 147.55034,107.234188 C148.651036,108.334875 150.14361,108.95225 151.699435,108.951562 L170.136267,108.951562 L170.136267,170.133562 L170.134892,170.133562 Z M108.952414,194.436688 L145.831577,194.436688 L145.831577,157.564 L108.952414,157.564 L108.952414,194.436688 Z M176.001375,97.218 L157.564543,97.218 L157.564543,78.7813125 C157.565231,77.2248125 156.947851,75.73225 155.847155,74.63225 C154.746459,73.5315625 153.253885,72.9148744 151.69806,72.9148744 L103.08593,72.9148744 C101.529418,72.9148744 100.036844,73.5315625 98.9368354,74.63225 C97.8361393,75.7329375 97.2187595,77.2255 97.219447,78.7813125 L97.219447,97.218 L78.7826155,97.218 C77.2261033,97.2173125 75.7335292,97.8346875 74.6335206,98.935375 C73.5328245,100.036062 72.9161316,101.528625 72.9161316,103.084437 L72.9161316,176 C72.9161316,177.5565 73.5328245,179.049062 74.6335206,180.149062 C75.7342167,181.24975 77.2267908,181.867125 78.7826155,181.866437 L97.219447,181.866437 L97.219447,200.303125 C97.2187595,201.859625 97.8361393,203.352187 98.9368354,204.452187 C100.037532,205.552875 101.530106,206.169563 103.08593,206.169563 L151.69806,206.169563 C153.254572,206.169563 154.747146,205.552875 155.847155,204.452187 C156.947851,203.3515 157.565231,201.858937 157.564543,200.303125 L157.564543,181.866437 L176.001375,181.866437 C177.557887,181.867125 179.050461,181.24975 180.15047,180.149062 C181.250479,179.048375 181.867859,177.555812 181.867859,176 L181.867859,103.085125 C181.867859,101.528625 181.251166,100.036062 180.15047,98.9360625 C179.050461,97.835375 177.557887,97.2173125 176.001375,97.218 L176.001375,97.218 Z" id="Fill-14" fill="#000000"></path>
                        <g id="Group-18">
                            <mask id="mask-2" fill="white">
                                <use xlink:href="#path-1"></use>
                            </mask>
                            <g id="Clip-17"></g>
                            <path d="M340.269096,315.963312 L321.832264,315.963312 C320.275752,315.962625 318.783178,316.58 317.683169,317.680687 C316.583161,318.781375 315.965093,320.273938 315.965781,321.82975 L315.965781,340.266437 L279.086618,340.266437 L279.086618,321.82975 C279.087305,320.27325 278.469926,318.780688 277.369229,317.680687 C276.268533,316.580687 274.775959,315.962625 273.220135,315.963312 L254.783303,315.963312 L254.783303,297.521125 C254.78399,295.964625 254.166611,294.472063 253.065915,293.372062 C251.965218,292.271375 250.472644,291.654 248.91682,291.654687 L224.613505,291.654687 C223.056993,291.654 221.564418,292.271375 220.46441,293.372062 C219.363714,294.47275 218.746334,295.965313 218.747021,297.521125 L218.747021,315.963312 L200.30469,315.963312 C198.748178,315.962625 197.255604,316.58 196.155595,317.680687 C195.055586,318.781375 194.437519,320.273938 194.438207,321.82975 L194.438207,340.266437 L157.565231,340.266437 L157.565231,321.82975 C157.565918,320.27325 156.948539,318.780688 155.847843,317.680687 C154.747146,316.58 153.254572,315.962625 151.698748,315.963312 L133.256416,315.963312 L133.256416,297.521125 C133.257104,295.964625 132.639724,294.472063 131.539028,293.372062 C130.438332,292.271375 128.945757,291.654 127.389933,291.654687 L103.086618,291.654687 C101.530106,291.654 100.037532,292.271375 98.9375229,293.372062 C97.8368269,294.47275 97.219447,295.965313 97.2201345,297.521125 L97.2201345,315.963312 L78.783303,315.963312 C77.2267908,315.962625 75.7342167,316.58 74.6342081,317.680687 C73.533512,318.781375 72.9161322,320.273938 72.9168197,321.82975 L72.9168197,340.266437 L36.036969,340.266437 L36.036969,321.82975 C36.0376565,320.27325 35.4202767,318.780688 34.3195806,317.680687 C33.2188845,316.580687 31.7263104,315.962625 30.1704857,315.963312 L11.7336542,315.963312 L11.7336542,133.254688 L30.1704857,133.254688 C31.7269979,133.255375 33.219572,132.638 34.3195806,131.537312 C35.4202767,130.436625 36.0376565,128.944062 36.036969,127.38825 L36.036969,84.6484375 L54.4793006,84.6484375 C56.0358128,84.649125 57.5283869,84.03175 58.6283955,82.9310625 C59.7290916,81.830375 60.3464715,80.3378125 60.345784,78.782 L60.345784,60.3453125 L78.7826155,60.3453125 C80.3391276,60.346 81.8317018,59.728625 82.9317104,58.6279375 C84.0324065,57.52725 84.6497863,56.0346875 84.6490988,54.478875 L84.6490988,36.0366875 L103.08593,36.0366875 C104.642443,36.037375 106.135017,35.42 107.235025,34.3193125 C108.335721,33.218625 108.953101,31.7260625 108.952414,30.17025 L108.952414,11.7335625 L243.050336,11.7335625 L243.050336,30.17025 C243.049649,31.72675 243.667029,33.2193125 244.767725,34.3193125 C245.868421,35.4193125 247.360995,36.037375 248.91682,36.0366875 L267.353651,36.0366875 L267.353651,54.478875 C267.352964,56.035375 267.970344,57.5279375 269.07104,58.6279375 C270.171736,59.728625 271.66431,60.346 273.220135,60.3453125 L291.656966,60.3453125 L291.656966,72.914875 L248.91682,72.914875 C247.360308,72.9141875 245.867733,73.5315625 244.767725,74.63225 C243.667029,75.7329375 243.049649,77.2255 243.050336,78.7813125 L243.050336,97.218 L224.613505,97.218 C223.056993,97.2173125 221.564418,97.8346875 220.46441,98.935375 C219.363714,100.036062 218.746334,101.528625 218.747021,103.084437 L218.747021,176 C218.746334,177.5565 219.363714,179.049062 220.46441,180.149063 C221.565106,181.249062 223.05768,181.867125 224.613505,181.866437 L243.050336,181.866437 L243.050336,200.303125 C243.049649,201.859625 243.667029,203.352188 244.767725,204.452188 C245.868421,205.552187 247.360995,206.17025 248.91682,206.169562 L297.523449,206.169562 C299.079962,206.17025 300.572536,205.552875 301.672544,204.452188 C302.772553,203.3515 303.39062,201.858938 303.389933,200.303125 L303.389933,181.866437 L321.832264,181.866437 C323.388776,181.867125 324.881351,181.24975 325.981359,180.149063 C327.082055,179.048375 327.699435,177.555813 327.698748,176 L327.698748,133.254688 L340.269096,133.254688 L340.269096,315.963312 L340.269096,315.963312 Z M303.389933,97.218 L315.965781,97.218 L315.965781,84.6484375 L303.389933,84.6484375 L303.389933,97.218 Z M254.78399,176 L254.78399,157.563312 L291.656966,157.563312 L291.656966,194.436 L254.78399,194.436 L254.78399,176 Z M303.39062,170.133563 L303.39062,151.696875 C303.391308,150.140375 302.773928,148.647813 301.673232,147.547813 C300.572536,146.447813 299.079962,145.82975 297.524137,145.830438 L248.917507,145.830438 C247.360995,145.82975 245.868421,146.447125 244.768412,147.547813 C243.668404,148.6485 243.050336,150.141063 243.051024,151.696875 L243.051024,170.133563 L230.481363,170.133563 L230.481363,108.951563 L248.918195,108.951563 C250.474707,108.95225 251.967281,108.334875 253.06729,107.234188 C254.167986,106.1335 254.785366,104.640938 254.784678,103.085125 L254.784678,84.6484375 L291.657654,84.6484375 L291.657654,103.085125 C291.656966,104.641625 292.274346,106.134188 293.375042,107.234188 C294.475738,108.334875 295.968312,108.95225 297.524137,108.951563 L315.966468,108.951563 L315.966468,170.133563 L303.39062,170.133563 Z M346.136267,121.521125 L327.699435,121.521125 L327.699435,78.7813125 C327.700123,77.2248125 327.082743,75.73225 325.982047,74.63225 C324.881351,73.5315625 323.388776,72.9141875 321.832952,72.914875 L303.39062,72.914875 L303.39062,54.478875 C303.391308,52.922375 302.773928,51.4298125 301.673232,50.3298125 C300.572536,49.229125 299.079962,48.61175 297.524137,48.6124375 L279.087305,48.6124375 L279.087305,30.1695625 C279.087993,28.6130625 278.470613,27.1205 277.369917,26.0205 C276.269221,24.9198125 274.776647,24.3024375 273.220822,24.303125 L254.78399,24.303125 L254.78399,5.8664375 C254.784678,4.3099375 254.167298,2.817375 253.066602,1.717375 C251.965906,0.617375 250.473332,-5.73577148e-07 248.91682,-5.73577148e-07 L103.08593,-5.73577148e-07 C101.529418,-5.73577148e-07 100.036844,0.6166875 98.9368354,1.717375 C97.8361393,2.8180625 97.2187595,4.310625 97.219447,5.8664375 L97.219447,24.303125 L78.7826155,24.303125 C77.2261033,24.3024375 75.7335292,24.9198125 74.6335206,26.0205 C73.5328245,27.1211875 72.9154447,28.61375 72.9161322,30.1695625 L72.9161322,48.61175 L54.4793006,48.61175 C52.9227885,48.6110625 51.4302143,49.2284375 50.3302057,50.329125 C49.2295096,51.4298125 48.6121298,52.922375 48.6128173,54.4781875 L48.6128173,72.914875 L30.1697982,72.914875 C28.613286,72.9141875 27.1207119,73.5315625 26.0207033,74.63225 C24.9200072,75.7329375 24.3026274,77.2255 24.3033149,78.7813125 L24.3033149,121.521125 L5.86648333,121.521125 C4.30997117,121.520437 2.81739701,122.137812 1.71738842,123.2385 C0.616692318,124.339187 -5.73581738e-07,125.83175 -5.73581738e-07,127.387562 L-5.73581738e-07,321.82975 C-5.73581738e-07,323.38625 0.616692318,324.878812 1.71738842,325.978812 C2.81808452,327.078812 4.31065868,327.696875 5.86648333,327.696187 L24.3033149,327.696187 L24.3033149,346.132875 C24.3026274,347.689375 24.9200072,349.181937 26.0207033,350.281937 C27.1213994,351.382625 28.6139735,351.999999 30.1697982,351.999999 L78.781928,351.999999 C80.3384401,351.999999 81.8310143,351.382625 82.9310229,350.281937 C84.031719,349.18125 84.6490988,347.688687 84.6484113,346.132875 L84.6484113,327.696875 L103.085243,327.696875 C104.641755,327.697562 106.134329,327.080187 107.234338,325.9795 C108.335034,324.878812 108.952414,323.38625 108.951726,321.830437 L108.951726,303.38825 L121.521387,303.38825 L121.521387,321.830437 C121.520699,323.386937 122.138079,324.8795 123.238775,325.9795 C124.339471,327.080187 125.832046,327.697562 127.38787,327.696875 L145.830202,327.696875 L145.830202,346.133562 C145.829514,347.690062 146.446894,349.182625 147.54759,350.282625 C148.648286,351.383312 150.14086,351.999999 151.696685,351.999999 L200.303315,351.999999 C201.859827,351.999999 203.352401,351.383312 204.45241,350.282625 C205.553106,349.181937 206.170486,347.689375 206.169798,346.133562 L206.169798,327.696875 L224.61213,327.696875 C226.168642,327.697562 227.661216,327.080187 228.761225,325.9795 C229.861921,324.878812 230.479301,323.38625 230.478613,321.830437 L230.478613,303.38825 L243.048274,303.38825 L243.048274,321.830437 C243.047586,323.386937 243.664966,324.8795 244.765662,325.9795 C245.866358,327.080187 247.358932,327.697562 248.914757,327.696875 L267.351589,327.696875 L267.351589,346.133562 C267.350901,347.690062 267.968281,349.182625 269.068977,350.282625 C270.169673,351.383312 271.662247,351.999999 273.218072,351.999999 L321.830202,351.999999 C323.386714,351.999999 324.879288,351.383312 325.979297,350.282625 C327.079993,349.181937 327.697373,347.689375 327.696685,346.133562 L327.696685,327.696875 L346.133517,327.696875 C347.690029,327.697562 349.182603,327.080187 350.282612,325.9795 C351.383308,324.878812 351.999999,323.38625 351.999999,321.830437 L351.999999,127.38825 C351.999999,125.83175 351.383308,124.339187 350.282612,123.239187 C349.185353,122.1385 347.692091,121.520437 346.136267,121.521125 L346.136267,121.521125 Z" id="Fill-16" fill="#000000" mask="url(#mask-2)"></path>
                        </g>
                    </g>
                </g>
                <path d="M441.833748,155.44943 C440.449706,154.061063 438.56616,153.281461 436.603699,153.282328 L413.348151,153.282328 L413.348151,99.3718832 C413.349018,97.4085707 412.570277,95.5259067 411.181899,94.1384067 C409.793521,92.7500395 407.910842,91.9713051 405.948382,91.9721723 L382.685895,91.9721723 L382.685895,68.7176724 C382.686763,66.7543599 381.908022,64.8716958 380.519644,63.4841958 C379.131266,62.0958286 377.248587,61.3170943 375.286127,61.3179615 L352.030578,61.3179615 L352.030578,38.0547897 C352.031445,36.0914772 351.252705,34.2088131 349.864327,32.8213131 C348.475949,31.4329459 346.59327,30.6542116 344.630809,30.6550787 L321.37526,30.6550787 L321.37526,7.39971164 C321.376128,5.43639914 320.597387,3.55373509 319.209009,2.16623509 C317.820631,0.778735096 315.937952,0 313.974625,0 L130.028844,0 C128.065516,0 126.182838,0.777867908 124.795327,2.16623509 C123.406949,3.55460227 122.628208,5.43726633 122.629076,7.39971164 L122.629076,30.6550787 L99.3735268,30.6550787 C97.4101989,30.6542116 95.5275202,31.4329459 94.1400093,32.8213131 C92.7516313,34.2096803 91.9728908,36.0923444 91.973758,38.0547897 L91.973758,61.3170943 L68.7182092,61.3170943 C66.7548814,61.3162271 64.8722026,62.0949615 63.4846918,63.4833286 C62.0963138,64.8716958 61.3175733,66.7543599 61.3184405,68.7168052 L61.3184405,91.9721723 L38.055087,91.9721723 C36.0917591,91.9713051 34.2090804,92.7500395 32.8215695,94.1384067 C31.4331915,95.5267738 30.654451,97.4094379 30.6553182,99.3718832 L30.6553182,153.282328 L7.39976945,153.282328 C5.43644162,153.281461 3.55376285,154.060196 2.16625202,155.448563 C0.777873986,156.83693 0,158.719594 0,160.682039 L0,405.944343 C0,407.907656 0.777873986,409.79032 2.16625202,411.17782 C3.55463004,412.56532 5.43730881,413.344921 7.39976945,413.344054 L30.6553182,413.344054 L30.6553182,436.599421 C30.654451,438.562734 31.4331915,440.445398 32.8215695,441.832898 C34.2099476,443.221265 36.0926263,444 38.055087,444 L99.3726596,444 C101.335987,444 103.218666,443.221265 104.606177,441.832898 C105.994555,440.444531 106.773295,438.561866 106.772428,436.599421 L106.772428,413.344921 L130.027977,413.344921 C131.991305,413.345788 133.873984,412.567054 135.261495,411.178687 C136.649873,409.79032 137.428613,407.907656 137.427746,405.94521 L137.427746,382.682906 L153.282659,382.682906 L153.282659,405.94521 C153.281791,407.908523 154.060532,409.791187 155.44891,411.178687 C156.837288,412.567054 158.719967,413.345788 160.682427,413.344921 L183.944914,413.344921 L183.944914,436.600288 C183.944047,438.563601 184.722787,440.446265 186.111165,441.833765 C187.499543,443.222132 189.382222,444 191.344682,444 L252.655318,444 C254.618645,444 256.501324,443.222132 257.888835,441.833765 C259.277213,440.445398 260.055953,438.562734 260.055086,436.600288 L260.055086,413.344921 L283.317573,413.344921 C285.2809,413.345788 287.163579,412.567054 288.55109,411.178687 C289.939468,409.79032 290.718209,407.907656 290.717341,405.94521 L290.717341,382.682906 L306.572254,382.682906 L306.572254,405.94521 C306.571387,407.908523 307.350127,409.791187 308.738505,411.178687 C310.126884,412.567054 312.009562,413.345788 313.972023,413.344921 L337.227572,413.344921 L337.227572,436.600288 C337.226705,438.563601 338.005445,440.446265 339.393823,441.833765 C340.782201,443.222132 342.66488,444 344.62734,444 L405.944913,444 C407.908241,444 409.79092,443.222132 411.17843,441.833765 C412.566808,440.445398 413.345549,438.562734 413.344682,436.600288 L413.344682,413.344921 L436.600231,413.344921 C438.563558,413.345788 440.446237,412.567054 441.833748,411.178687 C443.222126,409.79032 444,407.907656 444,405.94521 L444,160.682906 C444,158.719594 443.222126,156.83693 441.833748,155.44943 Z" id="Stroke-1" stroke="#CDB9F4" filter="url(#filter-3)"></path>
                <path d="M453.833748,177.44943 C452.449706,176.061063 450.56616,175.281461 448.603699,175.282328 L425.348151,175.282328 L425.348151,121.371883 C425.349018,119.408571 424.570277,117.525907 423.181899,116.138407 C421.793521,114.750039 419.910842,113.971305 417.948382,113.972172 L394.685895,113.972172 L394.685895,90.7176724 C394.686763,88.7543599 393.908022,86.8716958 392.519644,85.4841958 C391.131266,84.0958286 389.248587,83.3170943 387.286127,83.3179615 L364.030578,83.3179615 L364.030578,60.0547897 C364.031445,58.0914772 363.252705,56.2088131 361.864327,54.8213131 C360.475949,53.4329459 358.59327,52.6542116 356.630809,52.6550787 L333.37526,52.6550787 L333.37526,29.3997116 C333.376128,27.4363991 332.597387,25.5537351 331.209009,24.1662351 C329.820631,22.7787351 327.937952,22 325.974625,22 L142.028844,22 C140.065516,22 138.182838,22.7778679 136.795327,24.1662351 C135.406949,25.5546023 134.628208,27.4372663 134.629076,29.3997116 L134.629076,52.6550787 L111.373527,52.6550787 C109.410199,52.6542116 107.52752,53.4329459 106.140009,54.8213131 C104.751631,56.2096803 103.972891,58.0923444 103.973758,60.0547897 L103.973758,83.3170943 L80.7182092,83.3170943 C78.7548814,83.3162271 76.8722026,84.0949615 75.4846918,85.4833286 C74.0963138,86.8716958 73.3175733,88.7543599 73.3184405,90.7168052 L73.3184405,113.972172 L50.055087,113.972172 C48.0917591,113.971305 46.2090804,114.750039 44.8215695,116.138407 C43.4331915,117.526774 42.654451,119.409438 42.6553182,121.371883 L42.6553182,175.282328 L19.3997694,175.282328 C17.4364416,175.281461 15.5537629,176.060196 14.166252,177.448563 C12.777874,178.83693 12,180.719594 12,182.682039 L12,427.944343 C12,429.907656 12.777874,431.79032 14.166252,433.17782 C15.55463,434.56532 17.4373088,435.344921 19.3997694,435.344054 L42.6553182,435.344054 L42.6553182,458.599421 C42.654451,460.562734 43.4331915,462.445398 44.8215695,463.832898 C46.2099476,465.221265 48.0926263,466 50.055087,466 L111.37266,466 C113.335987,466 115.218666,465.221265 116.606177,463.832898 C117.994555,462.444531 118.773295,460.561866 118.772428,458.599421 L118.772428,435.344921 L142.027977,435.344921 C143.991305,435.345788 145.873984,434.567054 147.261495,433.178687 C148.649873,431.79032 149.428613,429.907656 149.427746,427.94521 L149.427746,404.682906 L165.282659,404.682906 L165.282659,427.94521 C165.281791,429.908523 166.060532,431.791187 167.44891,433.178687 C168.837288,434.567054 170.719967,435.345788 172.682427,435.344921 L195.944914,435.344921 L195.944914,458.600288 C195.944047,460.563601 196.722787,462.446265 198.111165,463.833765 C199.499543,465.222132 201.382222,466 203.344682,466 L264.655318,466 C266.618645,466 268.501324,465.222132 269.888835,463.833765 C271.277213,462.445398 272.055953,460.562734 272.055086,458.600288 L272.055086,435.344921 L295.317573,435.344921 C297.2809,435.345788 299.163579,434.567054 300.55109,433.178687 C301.939468,431.79032 302.718209,429.907656 302.717341,427.94521 L302.717341,404.682906 L318.572254,404.682906 L318.572254,427.94521 C318.571387,429.908523 319.350127,431.791187 320.738505,433.178687 C322.126884,434.567054 324.009562,435.345788 325.972023,435.344921 L349.227572,435.344921 L349.227572,458.600288 C349.226705,460.563601 350.005445,462.446265 351.393823,463.833765 C352.782201,465.222132 354.66488,466 356.62734,466 L417.944913,466 C419.908241,466 421.79092,465.222132 423.17843,463.833765 C424.566808,462.445398 425.345549,460.562734 425.344682,458.600288 L425.344682,435.344921 L448.600231,435.344921 C450.563558,435.345788 452.446237,434.567054 453.833748,433.178687 C455.222126,431.79032 456,429.907656 456,427.94521 L456,182.682906 C456,180.719594 455.222126,178.83693 453.833748,177.44943 Z" id="Stroke-1-Copy" stroke="#CDB9F4" filter="url(#filter-4)"></path>
            </g>
        </g>
    </g>
</svg>